<svg xmlns="http://www.w3.org/2000/svg" xmlns:xlink="http://www.w3.org/1999/xlink" width="1025" zoomAndPan="magnify" viewBox="0 0 768.75 431.999984" height="576" preserveAspectRatio="xMidYMid meet" version="1.0"><defs><clipPath id="79fb6a7300"><path d="M 289.113281 344.089844 L 480.101562 344.089844 L 480.101562 389.894531 L 289.113281 389.894531 Z M 289.113281 344.089844 " clip-rule="nonzero"/></clipPath><clipPath id="d7b372ce09"><path d="M 457.160156 344.089844 C 469.8125 344.089844 480.070312 354.34375 480.070312 366.992188 C 480.070312 379.640625 469.8125 389.894531 457.160156 389.894531 L 312.023438 389.894531 C 299.371094 389.894531 289.113281 379.640625 289.113281 366.992188 C 289.113281 354.34375 299.371094 344.089844 312.023438 344.089844 Z M 457.160156 344.089844 " clip-rule="nonzero"/></clipPath></defs><g clip-path="url(#79fb6a7300)"><g clip-path="url(#d7b372ce09)"><path fill="#202020" d="M 289.113281 344.089844 L 480.101562 344.089844 L 480.101562 389.894531 L 289.113281 389.894531 Z M 289.113281 344.089844 " fill-opacity="1" fill-rule="nonzero"/></g></g><path fill="#ffffff" d="M 339.75 370.507812 L 339.75 361.066406 L 345.140625 361.066406 L 345.140625 362.414062 L 341.097656 362.414062 L 341.097656 365.117188 L 345.140625 365.117188 L 345.140625 366.464844 L 341.097656 366.464844 L 341.097656 370.507812 Z M 345.140625 365.117188 L 345.140625 362.414062 L 346.488281 362.414062 L 346.488281 365.117188 Z M 345.140625 365.117188 " fill-opacity="1" fill-rule="nonzero"/><path fill="#ffffff" d="M 347.839844 370.507812 L 347.839844 361.066406 L 349.1875 361.066406 L 349.1875 365.117188 L 353.230469 365.117188 L 353.230469 361.066406 L 354.578125 361.066406 L 354.578125 370.507812 L 353.230469 370.507812 L 353.230469 366.464844 L 349.1875 366.464844 L 349.1875 370.507812 Z M 347.839844 370.507812 " fill-opacity="1" fill-rule="nonzero"/><path fill="#ffffff" d="M 355.933594 361.066406 L 357.28125 361.066406 L 357.28125 370.507812 L 355.933594 370.507812 Z M 355.933594 361.066406 " fill-opacity="1" fill-rule="nonzero"/><path fill="#ffffff" d="M 358.628906 370.507812 L 358.628906 361.066406 L 359.976562 361.066406 L 359.976562 369.160156 L 365.367188 369.160156 L 365.367188 370.507812 Z M 358.628906 370.507812 " fill-opacity="1" fill-rule="nonzero"/><path fill="#ffffff" d="M 366.722656 370.507812 L 366.722656 361.066406 L 368.070312 361.066406 L 368.070312 369.160156 L 373.460938 369.160156 L 373.460938 370.507812 Z M 366.722656 370.507812 " fill-opacity="1" fill-rule="nonzero"/><path fill="#ffffff" d="M 374.8125 361.066406 L 376.160156 361.066406 L 376.160156 370.507812 L 374.8125 370.507812 Z M 374.8125 361.066406 " fill-opacity="1" fill-rule="nonzero"/><path fill="#ffffff" d="M 377.511719 370.507812 L 377.511719 361.066406 L 382.902344 361.066406 L 382.902344 362.414062 L 378.859375 362.414062 L 378.859375 365.117188 L 382.902344 365.117188 L 382.902344 366.464844 L 378.859375 366.464844 L 378.859375 370.507812 Z M 382.902344 365.117188 L 382.902344 362.414062 L 384.25 362.414062 L 384.25 365.117188 Z M 382.902344 365.117188 " fill-opacity="1" fill-rule="nonzero"/><path fill="#ffffff" d="M 385.601562 361.066406 L 386.949219 361.066406 L 386.949219 370.507812 L 385.601562 370.507812 Z M 385.601562 361.066406 " fill-opacity="1" fill-rule="nonzero"/><path fill="#ffffff" d="M 388.300781 370.507812 L 388.300781 362.414062 L 389.648438 362.414062 L 389.648438 366.464844 L 393.691406 366.464844 L 393.691406 362.414062 L 395.039062 362.414062 L 395.039062 370.507812 L 393.691406 370.507812 L 393.691406 367.8125 L 389.648438 367.8125 L 389.648438 370.507812 Z M 389.648438 362.414062 L 389.648438 361.066406 L 393.691406 361.066406 L 393.691406 362.414062 Z M 389.648438 362.414062 " fill-opacity="1" fill-rule="nonzero"/><path fill="#ffffff" d="M 401.78125 370.507812 L 401.78125 366.464844 L 400.433594 366.464844 L 400.433594 365.117188 L 401.78125 365.117188 L 401.78125 361.066406 L 403.128906 361.066406 L 403.128906 370.507812 Z M 396.390625 370.507812 L 396.390625 361.066406 L 397.738281 361.066406 L 397.738281 362.414062 L 399.085938 362.414062 L 399.085938 363.761719 L 397.738281 363.761719 L 397.738281 370.507812 Z M 399.085938 365.117188 L 399.085938 363.761719 L 400.433594 363.761719 L 400.433594 365.117188 Z M 399.085938 365.117188 " fill-opacity="1" fill-rule="nonzero"/><path fill="#ffffff" d="M 405.832031 362.414062 L 405.832031 365.117188 L 404.484375 365.117188 L 404.484375 362.414062 Z M 404.484375 369.160156 L 404.484375 367.8125 L 405.832031 367.8125 L 405.832031 369.160156 Z M 405.832031 370.507812 L 405.832031 369.160156 L 409.875 369.160156 L 409.875 370.507812 Z M 405.832031 366.464844 L 405.832031 365.117188 L 409.875 365.117188 L 409.875 366.464844 Z M 405.832031 362.414062 L 405.832031 361.066406 L 409.875 361.066406 L 409.875 362.414062 Z M 409.875 369.160156 L 409.875 366.464844 L 411.222656 366.464844 L 411.222656 369.160156 Z M 409.875 363.761719 L 409.875 362.414062 L 411.222656 362.414062 L 411.222656 363.761719 Z M 409.875 363.761719 " fill-opacity="1" fill-rule="nonzero"/><path fill="#ffffff" d="M 417.292969 370.507812 L 417.292969 363.761719 L 415.945312 363.761719 L 415.945312 362.414062 L 417.292969 362.414062 L 417.292969 361.066406 L 418.644531 361.066406 L 418.644531 370.507812 Z M 417.292969 370.507812 " fill-opacity="1" fill-rule="nonzero"/><path fill="#ffffff" d="M 419.992188 365.117188 L 419.992188 363.761719 L 421.339844 363.761719 L 421.339844 365.117188 Z M 419.992188 370.507812 L 419.992188 369.160156 L 421.339844 369.160156 L 421.339844 370.507812 Z M 419.992188 370.507812 " fill-opacity="1" fill-rule="nonzero"/><path fill="#ffffff" d="M 422.691406 369.160156 L 422.691406 362.414062 L 424.039062 362.414062 L 424.039062 365.117188 L 428.082031 365.117188 L 428.082031 366.464844 L 424.039062 366.464844 L 424.039062 369.160156 Z M 424.039062 370.507812 L 424.039062 369.160156 L 428.082031 369.160156 L 428.082031 370.507812 Z M 424.039062 362.414062 L 424.039062 361.066406 L 428.082031 361.066406 L 428.082031 362.414062 Z M 428.082031 369.160156 L 428.082031 366.464844 L 429.429688 366.464844 L 429.429688 369.160156 Z M 428.082031 363.761719 L 428.082031 362.414062 L 429.429688 362.414062 L 429.429688 363.761719 Z M 428.082031 363.761719 " fill-opacity="1" fill-rule="nonzero"/><path stroke-linecap="butt" transform="matrix(2.346008, 0, 0, 2.344927, 334.911589, 50.649986)" fill="none" stroke-linejoin="miter" d="M 30.345154 40.000924 L 30.345154 2.346495 L 20.957532 2.346495 L 20.957532 40.000924 Z M 70.241718 8.583363 C 66.556935 5.066795 61.596713 1.446946 53.654365 1.446946 C 43.942055 1.446946 38.460669 6.616018 38.460669 14.023965 C 38.460669 20.638978 43.837156 23.737422 50.45245 24.636971 L 54.774952 25.223343 C 58.133383 25.653127 61.336963 26.406082 61.336963 29.063082 C 61.336963 32.214833 57.170977 33.437552 54.396983 33.437552 C 50.349216 33.437552 46.025048 31.731742 43.525789 28.698265 L 36.377676 33.229324 C 40.21731 37.708741 44.74961 40.860492 53.551131 40.860492 C 64.317425 40.860492 70.671304 35.678094 70.671304 27.735415 C 70.671304 21.276991 66.610217 18.295154 56.806328 16.90252 L 52.638677 16.316148 C 49.436761 15.84805 47.848292 14.8852 47.848292 12.852887 C 47.848292 11.095436 49.604933 8.85656 53.447897 8.85656 C 57.495664 8.85656 60.581025 10.718958 63.303402 13.544206 Z M 111.999821 40.000924 L 98.133181 2.346495 L 88.317637 2.346495 L 74.346097 40.000924 L 84.371439 40.000924 L 86.232979 33.972284 L 100.099619 33.972284 L 101.976145 40.000924 Z M 97.965009 27.200684 L 88.420871 27.200684 L 93.069725 11.303664 Z M 97.965009 27.200684 " stroke="#000000" stroke-width="1.667" stroke-opacity="1" stroke-miterlimit="4"/><path fill="#ffffff" d="M 406.113281 144.445312 L 406.113281 56.152344 L 384.089844 56.152344 L 384.089844 144.445312 Z M 406.113281 144.445312 " fill-opacity="1" fill-rule="nonzero"/><path fill="#ffffff" d="M 499.699219 70.785156 C 491.0625 62.535156 479.425781 54.03125 460.789062 54.03125 C 438.015625 54.03125 425.125 66.15625 425.125 83.542969 C 425.125 99.050781 437.769531 106.304688 453.277344 108.433594 L 463.414062 109.804688 C 471.289062 110.800781 478.804688 112.558594 478.804688 118.816406 C 478.804688 126.183594 469.039062 129.066406 462.535156 129.066406 C 453.03125 129.066406 442.890625 125.058594 437.019531 117.9375 L 420.25 128.5625 C 429.261719 139.070312 439.890625 146.449219 460.53125 146.449219 C 485.8125 146.449219 500.695312 134.3125 500.695312 115.6875 C 500.695312 100.550781 491.191406 93.546875 468.171875 90.300781 L 458.410156 88.917969 C 450.898438 87.792969 447.144531 85.542969 447.144531 80.789062 C 447.144531 76.664062 451.273438 71.417969 460.285156 71.417969 C 469.789062 71.417969 477.058594 75.785156 483.433594 82.417969 Z M 499.699219 70.785156 " fill-opacity="1" fill-rule="nonzero"/><path fill="#ffffff" d="M 597.660156 144.445312 L 565.125 56.152344 L 542.105469 56.152344 L 509.324219 144.445312 L 532.84375 144.445312 L 537.230469 130.320312 L 569.753906 130.320312 L 574.136719 144.445312 Z M 564.75 114.433594 L 542.363281 114.433594 L 553.238281 77.167969 Z M 564.75 114.433594 " fill-opacity="1" fill-rule="nonzero"/><path stroke-linecap="butt" transform="matrix(1.408729, 0, 0, 1.40808, 37.960534, 97.761272)" fill="none" stroke-linejoin="miter" d="M 224.410252 14.073674 C 224.302109 14.334446 223.911132 14.290059 223.237319 13.943288 C 222.58569 13.574323 221.154879 13.391228 218.93934 13.391228 C 215.553642 13.391228 211.746464 14.442638 207.515035 16.548232 C 203.303015 18.628858 198.888575 21.386382 194.266167 24.815254 C 189.64376 28.221933 184.99917 32.01977 180.33517 36.208764 C 175.668396 40.375565 171.198498 44.595075 166.922702 48.870069 C 162.669089 53.147837 158.806454 57.095478 155.334796 60.718542 C 148.846234 67.66506 143.170129 74.023454 138.309253 79.796499 C 133.47056 85.566769 129.815892 90.277307 127.339701 93.922565 C 125.648238 96.330543 124.333889 98.067172 123.402198 99.129679 C 122.467734 100.192186 121.51386 100.724826 120.53503 100.724826 C 119.733665 100.724826 119.148585 100.172766 118.77979 99.065873 C 118.430406 97.95898 118.746516 96.244544 119.722573 93.922565 C 120.612671 91.880777 122.209855 89.286929 124.508581 86.143796 C 126.829489 82.972922 129.566332 79.521856 132.713561 75.7906 C 135.880201 72.056569 139.243717 68.303119 142.801334 64.527476 C 146.361725 60.751832 149.822291 57.270251 153.185806 54.079957 C 163.492637 44.292691 173.075744 36.219861 181.929581 29.861466 C 190.783418 23.503072 198.672289 18.859114 205.593422 15.926818 C 196.001996 18.687116 187.223028 22.396179 179.259288 27.06233 C 171.295549 31.728482 163.634055 36.685921 156.277578 41.937422 C 148.444165 47.449695 141.240197 52.789969 134.665676 57.952696 C 128.088381 63.096005 121.710735 68.292022 115.524418 73.543523 C 109.360284 78.772831 102.849539 84.287878 95.992183 90.080341 C 95.36551 91.056849 94.691697 92.077743 93.976292 93.140249 C 93.280297 94.20553 92.575983 95.179263 91.860577 96.069771 C 89.90569 98.45833 88.300187 100.031284 87.044068 100.791406 C 85.804586 101.548754 84.92558 101.754042 84.404277 101.407271 C 83.774831 101.041081 83.636186 100.300378 83.980024 99.193485 C 84.351592 98.089366 85.111363 96.960279 86.262113 95.811773 C 87.953575 94.030757 89.373295 92.674189 90.524044 91.739294 C 91.674793 90.807174 92.922594 89.811247 94.267445 88.745966 C 96.1336 85.991217 98.326956 82.595635 100.84474 78.556446 C 103.381934 74.500611 105.963494 70.430906 108.592194 66.350104 C 111.215347 62.249883 113.594487 58.690625 115.71852 55.675104 C 118.649465 51.48611 122.001888 47.200019 125.778564 42.816833 C 129.57465 38.411454 133.764487 34.297362 138.342527 30.480106 C 142.920568 26.660076 147.82581 23.633458 153.05548 21.397478 C 149.952617 22.027215 146.198124 23.27559 141.794775 25.139832 C 137.388653 27.006847 132.430727 29.891982 126.918222 33.798012 C 122.575877 36.902306 118.377721 40.211889 114.318211 43.729535 C 110.283656 47.244406 105.727799 51.527722 100.647865 56.585031 C 95.506927 61.750533 91.067531 66.222493 87.335221 69.995362 C 83.602911 73.773779 80.294854 77.083362 77.405503 79.924111 C 74.521698 82.767633 71.698896 85.394771 68.942643 87.802749 C 60.762619 94.921265 52.602004 100.139476 44.463573 103.457382 C 36.327914 106.800255 28.613735 108.470304 21.321035 108.470304 C 14.31117 108.470304 9.156368 106.997221 5.859402 104.045506 C 2.581846 101.115984 0.846018 97.209954 0.649142 92.327418 C 0.391264 86.554373 1.941309 80.975521 5.304824 75.596408 C 8.690523 70.211747 13.684497 65.212695 20.278429 60.588156 C 24.446082 57.572635 28.838339 55.250656 33.463519 53.622219 C 38.085927 51.974363 42.306265 50.836954 46.124534 50.204444 C 45.517271 49.74948 44.898917 48.925552 44.269471 47.73266 C 43.640025 46.539767 43.237956 45.052813 43.063264 43.271797 C 42.805385 37.218561 45.070836 31.770094 49.867935 26.931945 C 54.665034 22.093795 61.641625 18.270991 70.797707 15.471855 C 79.956561 12.672719 90.754194 11.274538 103.187832 11.274538 C 110.566491 11.274538 117.476532 11.654599 123.923501 12.411947 C 130.367697 13.15265 136.11867 14.01819 141.176421 15.016891 C 146.253582 15.993398 150.343594 16.925519 153.446458 17.816027 C 155.226653 18.251571 157.114991 18.825824 159.111472 19.544334 C 161.127362 20.257295 162.669089 20.875935 163.733879 21.397478 C 164.16645 21.65825 164.57961 21.971731 164.970588 22.34347 C 165.380975 22.687467 165.455843 22.992625 165.197964 23.253397 C 165.112005 23.450363 164.393826 23.231204 163.048975 22.601468 C 162.441712 22.254696 161.715215 21.930119 160.869484 21.62496 C 160.020979 21.300383 159.197431 21.095094 158.393293 21.006321 C 157.591928 20.831548 156.474453 21.017417 155.040869 21.561154 C 153.629469 22.079924 151.949097 23.145205 149.996983 24.751448 C 145.915289 28.11374 141.653358 32.716086 137.20287 38.552936 C 132.755155 44.367593 128.177114 50.337604 123.465974 56.454645 C 120.080276 60.818412 116.652984 65.157212 113.181326 69.476592 C 109.731851 73.773779 106.182552 77.885097 102.536202 81.813319 C 106.789815 78.514833 111.606325 74.533901 116.991277 69.86775 C 122.370683 65.198824 128.30744 60.177579 134.793229 54.795693 C 141.284563 49.413806 148.302747 44.151208 155.856099 39.0079 C 159.957203 36.250376 164.59902 33.298661 169.787097 30.155528 C 174.994584 26.984654 180.421129 24.024616 186.06396 21.267093 C 191.70679 18.512343 197.327438 16.265267 202.925902 14.531411 C 208.521594 12.794782 213.765128 11.926467 218.648187 11.926467 C 220.880363 11.926467 222.444273 12.217755 223.334371 12.803105 C 224.224468 13.391228 224.582171 13.812902 224.410252 14.073674 Z M 155.725773 19.932717 C 150.213268 18.609439 142.920568 17.394353 133.850446 16.28746 C 124.802507 15.158374 114.809012 14.595217 103.872735 14.595217 C 96.036549 14.595217 88.538655 15.266566 81.376281 16.612038 C 74.238863 17.93809 67.891718 19.868912 62.334847 22.407276 C 56.780749 24.94564 52.441177 28.016644 49.31613 31.620289 C 46.210493 35.198967 44.790774 39.299188 45.051426 43.920952 C 45.159568 45.183199 45.539454 46.450994 46.191083 47.73266 C 46.862123 49.011551 47.513752 49.74948 48.143198 49.946446 C 50.530656 49.663481 52.743422 49.521998 54.784268 49.521998 C 60.122081 49.521998 64.386786 50.639988 67.575609 52.873194 C 70.789388 55.08698 72.394891 58.149662 72.394891 62.055692 C 72.394891 64.028125 72.037188 65.656562 71.321783 66.938228 C 70.625787 68.21712 70.007433 68.68318 69.463947 68.336409 C 69.117335 68.164411 69.181112 67.676157 69.658049 66.871648 C 70.157169 66.069913 70.406729 64.560766 70.406729 62.346979 C 70.406729 58.787721 68.931552 56.055165 65.981197 54.146537 C 63.053026 52.232361 59.373401 51.278047 54.947869 51.278047 C 50.042627 51.278047 44.726997 52.365521 38.995434 54.534921 C 33.266644 56.704321 27.64877 59.755906 22.133492 63.681354 C 18.661834 66.069913 15.484102 68.846856 12.597524 72.014956 C 9.710946 75.160863 7.378946 78.470446 5.59875 81.943705 C 3.821328 85.394771 2.928458 88.854159 2.928458 92.327418 C 2.928458 96.777184 4.373133 100.217153 7.256939 102.64455 C 10.14629 105.096915 14.258485 106.325872 19.596298 106.325872 C 24.129973 106.325872 29.035214 105.346591 34.309251 103.393576 C 39.602697 101.440561 45.007059 98.782908 50.519564 95.420616 C 56.032069 92.033356 61.325515 88.24939 66.402676 84.060396 C 69.50554 81.585838 72.436484 79.080763 75.192737 76.539625 C 77.948989 74.001261 80.921527 71.179932 84.113123 68.075637 C 87.324129 64.949149 91.156263 61.306666 95.603978 57.137091 C 99.422247 53.580607 102.819037 50.445796 105.791575 47.73266 C 108.764113 45.019523 111.739423 42.467288 114.709188 40.081503 C 117.706682 37.673525 121.070197 35.176773 124.802507 32.594022 C 131.116377 28.14703 136.845167 25.01222 141.988877 23.186817 C 147.154771 21.364188 151.732812 20.279489 155.725773 19.932717 Z M 203.73004 60.069387 C 199.911771 63.539872 196.243238 67.054743 192.729987 70.616775 C 189.21119 74.151066 186.077824 77.419037 183.321572 80.412364 C 180.565319 83.386273 178.383055 85.849735 176.777552 87.802749 C 175.194232 89.755764 173.816106 91.514587 172.643173 93.076443 C 171.495197 94.616107 170.918436 95.786806 170.918436 96.591315 C 170.918436 97.39305 171.364871 97.795304 172.254969 97.795304 C 173.142294 97.795304 174.315226 97.39305 175.76822 96.591315 C 177.243397 95.786806 178.740758 94.832492 180.263074 93.725599 C 181.779845 92.62148 183.027645 91.708778 184.003703 90.990269 C 186.130509 89.212027 188.365458 87.325592 190.70855 85.328191 C 193.073825 83.33079 195.147946 81.574741 196.925369 80.054497 C 197.274753 79.882498 197.576998 79.729919 197.840422 79.599533 C 198.120484 79.469147 198.392227 79.535727 198.652879 79.796499 C 199.107633 80.251463 198.977307 80.739716 198.261902 81.258486 C 197.025193 82.320992 195.58329 83.569368 193.933421 85.003613 C 192.283551 86.412891 190.678048 87.769459 189.114138 89.070544 C 187.575185 90.35221 186.31352 91.392523 185.340235 92.197032 C 183.191246 93.803276 180.825971 95.495518 178.241638 97.27376 C 175.682261 99.052002 173.380762 99.94251 171.339915 99.94251 C 169.562493 99.94251 168.336876 99.520837 167.663063 98.674715 C 166.992024 97.828594 166.656504 96.732797 166.656504 95.387326 C 166.656504 93.434311 167.502236 91.034655 169.193699 88.193907 C 168.303601 89.081641 167.435687 89.863956 166.589955 90.535305 C 165.744224 91.209428 165.05932 91.764262 164.54079 92.197032 C 162.47776 93.889275 160.068119 95.603711 157.311866 97.34034 C 154.555614 99.07697 152.157064 99.94251 150.11899 99.94251 C 148.427527 99.94251 147.254595 99.565223 146.602966 98.805101 C 145.929154 98.044979 145.593634 97.090665 145.593634 95.939385 C 145.593634 93.70618 146.483732 91.142848 148.263927 88.257713 C 150.041349 85.372578 152.439899 82.290476 155.456803 79.014183 C 157.236998 77.147168 159.363805 75.130348 161.837222 72.958174 C 164.332823 70.769355 166.850607 68.71647 169.387801 66.805068 C 171.927768 64.89644 174.087849 63.453872 175.868044 62.477365 C 176.844101 61.847629 178.241638 61.403762 180.066199 61.14299 C 181.887988 60.860025 183.243931 60.774026 184.134028 60.882218 C 180.2298 64.072512 176.375483 67.382095 172.579397 70.810967 C 168.802721 74.217646 165.472481 77.419037 162.585902 80.412364 C 159.699324 83.386273 157.453283 85.849735 155.84778 87.802749 C 154.261687 89.755764 152.919609 91.514587 151.810453 93.076443 C 150.681887 94.616107 150.11899 95.786806 150.11899 96.591315 C 150.11899 97.39305 150.521059 97.795304 151.325197 97.795304 C 152.212522 97.795304 153.404864 97.39305 154.902225 96.591315 C 156.424541 95.786806 157.985678 94.832492 159.591181 93.725599 C 161.196685 92.62148 162.533217 91.622779 163.595234 90.732271 C 164.745983 89.841763 166.187886 88.626677 167.923715 87.084239 C 169.659544 85.522383 171.298322 83.960526 172.840049 82.398669 C 174.403958 80.836812 175.540843 79.707726 176.259022 79.014183 C 178.036444 77.147168 180.16325 75.063767 182.636668 72.763982 C 185.132269 70.442003 187.630642 68.239313 190.126243 66.155913 C 192.619071 64.050319 194.756969 62.466268 196.537164 61.403762 C 197.230387 60.946024 198.381136 60.588156 199.986639 60.330159 C 201.594915 60.069387 202.839943 59.980614 203.73004 60.069387 Z M 247.175676 80.60933 C 247.544471 80.956101 247.544471 81.336162 247.175676 81.749514 C 246.829065 82.137897 246.482454 82.462475 246.13307 82.723247 C 244.072813 84.504263 241.729721 86.490567 239.103794 88.679386 C 236.500051 90.85156 233.948992 92.826768 231.453392 94.607784 C 228.957791 96.297253 226.603607 97.653821 224.390841 98.674715 C 222.178075 99.692835 220.267554 100.203282 218.662051 100.203282 C 215.451045 100.203282 213.842769 98.597039 213.842769 95.387326 C 213.842769 93.259538 214.829918 90.81827 216.806988 88.063521 C 218.476268 85.763735 220.115046 83.788527 221.720549 82.137897 C 223.328825 80.490041 225.508316 78.414963 228.264568 75.920986 C 229.675969 74.683706 231.4423 73.15514 233.569106 71.332511 C 235.718096 69.507108 237.639709 67.784349 239.331171 66.155913 C 241.022634 64.508056 241.871138 63.323487 241.871138 62.607751 C 241.871138 62.066788 241.555029 61.792146 240.925583 61.792146 C 239.774834 61.792146 237.911452 62.444075 235.327119 63.74516 C 232.745558 65.026826 229.828478 66.688553 226.573106 68.727567 C 223.337143 70.769355 220.137229 72.947077 216.967816 75.269056 C 213.823359 77.568842 211.183568 79.752112 209.059534 81.813319 C 206.846768 83.852333 204.914064 85.763735 203.264195 87.541977 C 201.614325 89.320219 199.922863 91.209428 198.187034 93.206829 C 196.451205 95.204231 194.432541 97.709305 192.133815 100.724826 C 191.590329 100.724826 191.166077 100.411345 190.863832 99.781609 C 190.558814 99.174066 190.406305 98.469427 190.406305 97.664918 C 190.406305 96.688411 191.166077 94.962878 192.68562 92.48832 C 194.182981 89.994342 196.265421 87.053724 198.935714 83.669238 C 201.603234 80.284753 204.664504 76.811494 208.113979 73.252235 C 210.262968 70.95245 212.44246 68.846856 214.657999 66.938228 C 216.870765 65.026826 218.781286 63.539872 220.386789 62.477365 C 221.537538 61.76163 222.957258 61.228989 224.651493 60.882218 C 226.342956 60.513254 228.037191 60.330159 229.728654 60.330159 C 227.404973 61.933628 224.551669 64.24451 221.168744 67.262806 C 217.805228 70.278327 214.657999 73.479717 211.727054 76.864203 C 211.555135 77.038975 211.488586 77.169361 211.532952 77.255361 C 211.574545 77.344134 211.641095 77.344134 211.727054 77.255361 C 213.42129 75.846083 215.603554 74.162163 218.271074 72.209148 C 220.938594 70.256134 223.783579 68.325312 226.79771 66.416684 C 229.814614 64.485863 232.681782 62.899039 235.393668 61.664534 C 238.105554 60.427255 240.351595 59.808615 242.129017 59.808615 C 243.62915 59.808615 244.71335 60.188676 245.38439 60.946024 C 246.058202 61.683953 246.393721 62.541171 246.393721 63.520452 C 246.393721 65.037923 245.678316 66.774552 244.247505 68.727567 C 242.836104 70.680581 241.175143 72.611403 239.267395 74.522805 C 237.356874 76.431433 235.598862 78.101482 233.993359 79.535727 C 231.866552 81.488742 229.911665 83.33079 228.134243 85.067419 C 226.354047 86.804048 224.748544 88.421389 223.317733 89.91944 C 221.623498 91.697682 220.39788 93.109733 219.638108 94.150047 C 218.90052 95.170941 218.531725 96.028159 218.531725 96.721701 C 218.531725 97.612209 219.019754 98.056076 219.995811 98.056076 C 221.060601 98.056076 222.632829 97.523435 224.718042 96.460929 C 226.822666 95.395648 228.979974 94.108434 231.19274 92.58819 C 233.494238 90.915366 235.978748 88.954029 238.64904 86.695856 C 241.31656 84.415489 243.540418 82.562345 245.320613 81.1281 C 245.581265 80.867328 245.88351 80.650943 246.232894 80.47617 C 246.601688 80.284753 246.915025 80.326365 247.175676 80.60933 Z M 253.068067 47.405308 C 252.349889 49.011551 251.190821 50.595602 249.585318 52.157458 C 247.979814 53.699896 246.158026 54.468341 244.117179 54.468341 C 242.619819 54.468341 241.241692 54.132666 239.9828 53.461318 C 238.746092 52.789969 237.542657 52.124168 236.369725 51.475013 C 235.218976 50.803664 233.982267 50.465216 232.656826 50.465216 C 231.420117 50.465216 230.335917 50.778697 229.404226 51.411207 C 228.472535 52.01875 227.69058 52.765001 227.058361 53.655509 C 226.886442 53.852475 226.700659 54.057764 226.506556 54.274149 C 226.331864 54.493308 226.157172 54.557114 225.985253 54.468341 C 225.46395 54.296342 225.46395 53.722089 225.985253 52.745582 C 226.700659 51.225338 227.884683 49.741158 229.534552 48.284719 C 231.184421 46.808862 232.942433 46.070933 234.805815 46.070933 C 236.303176 46.070933 237.625844 46.406607 238.776593 47.08073 C 239.949526 47.73266 241.130777 48.392912 242.325892 49.067035 C 243.521008 49.741158 244.788218 50.074058 246.13307 50.074058 C 247.372552 50.074058 248.478935 49.741158 249.454992 49.067035 C 250.431049 48.392912 251.235187 47.568984 251.864633 46.592476 C 252.211244 46.070933 252.613313 45.854548 253.068067 45.940547 C 253.328719 46.11532 253.328719 46.603573 253.068067 47.405308 Z M 281.997626 59.547843 C 285.361141 59.547843 287.041512 60.826735 287.041512 63.387292 C 287.041512 65.340307 286.065455 67.989638 284.11334 71.332511 C 282.158453 74.675384 279.099956 78.428834 274.932303 82.595635 C 269.59449 88.019134 264.570014 92.316321 259.861647 95.484422 C 255.15328 98.630329 251.462564 100.203282 248.795044 100.203282 C 244.976775 100.203282 243.063481 98.111559 243.063481 93.922565 C 243.063481 91.534006 243.978535 88.626677 245.800323 85.197805 C 247.622112 81.768933 250.170397 78.37335 253.450726 75.008284 C 256.573 71.88457 259.861647 69.171434 263.311122 66.871648 C 266.78278 64.549669 270.157386 62.749234 273.434942 61.467568 C 276.734681 60.188676 279.587984 59.547843 281.997626 59.547843 Z M 284.925797 62.868523 C 284.925797 61.892016 284.396175 61.403762 283.328613 61.403762 C 281.290539 61.403762 278.001891 63.118198 273.468217 66.54707 C 268.931769 69.953749 263.910066 74.456225 258.397561 80.054497 C 255.380657 83.352983 252.690954 86.468374 250.322906 89.397896 C 247.957631 92.327418 246.77638 94.6383 246.77638 96.330543 C 246.77638 97.848013 247.491786 98.610909 248.922597 98.610909 C 250.963444 98.610909 254.207725 96.785507 258.658213 93.140249 C 263.105928 89.494992 268.041672 84.873227 273.468217 79.272181 C 274.965577 77.668712 276.604355 75.82389 278.38455 73.740489 C 280.161973 71.657089 281.692608 69.618075 282.97091 67.620673 C 284.274168 65.601079 284.925797 64.019803 284.925797 62.868523 Z M 270.917158 100.59444 C 270.481815 100.59444 270.265529 100.422441 270.265529 100.07567 C 270.265529 99.44316 270.753558 98.730199 271.729615 97.92569 C 272.164959 97.490145 272.76113 97.015763 273.520902 96.494219 C 274.280673 95.950482 275.018262 95.495518 275.733668 95.126554 C 277.231028 93.803276 279.271875 92.099936 281.856208 90.016536 C 284.437769 87.910942 287.235614 85.708252 290.252518 83.408466 C 293.269422 81.086487 296.197594 79.036377 299.042579 77.255361 C 303.05495 74.694803 306.884311 72.50321 310.530661 70.680581 C 314.177011 68.857953 317.637577 67.09913 320.917906 65.406887 C 321.175785 65.232114 321.328293 65.123922 321.37266 65.082309 C 321.436436 65.037923 321.283927 65.101729 320.917906 65.276501 C 319.420545 65.712046 317.637577 65.928431 315.57732 65.928431 C 313.991227 65.928431 312.507731 65.820238 311.118513 65.601079 C 309.751479 65.384694 308.395536 65.276501 307.050684 65.276501 C 304.749186 65.276501 302.730522 65.809141 300.994693 66.871648 C 299.258864 67.934155 297.284567 69.756783 295.069028 72.339534 C 294.700233 72.947077 294.256571 73.12185 293.735268 72.861078 C 293.366473 72.600306 293.366473 72.156439 293.735268 71.526703 C 296.122726 67.967445 298.293898 65.373597 300.246013 63.74516 C 302.198127 62.097304 304.044872 61.056991 305.777928 60.621446 C 307.51653 60.166483 309.141443 59.939001 310.66376 59.939001 C 312.962485 59.939001 315.067108 60.405061 316.977629 61.337182 C 318.885378 62.272077 321.089825 62.738137 323.585426 62.738137 C 324.822135 62.738137 325.753825 62.607751 326.386044 62.346979 C 327.10145 61.892016 327.858449 61.467568 328.662587 61.07641 C 329.463952 60.665833 330.040713 60.460545 330.390097 60.460545 C 331.01677 60.460545 331.33288 60.685252 331.33288 61.14299 C 331.33288 61.664534 330.7478 62.1944 329.574867 62.738137 C 329.053564 62.996135 328.413027 63.290197 327.653255 63.617548 C 326.893483 63.919933 326.028342 64.202898 325.049511 64.46367 C 322.293259 65.895141 318.843784 68.011831 314.698314 70.810967 C 310.575027 73.610103 306.290912 76.431433 301.840424 79.272181 C 298.651601 81.313969 294.874925 83.624851 290.51317 86.207602 C 286.173597 88.787579 282.355328 91.231621 279.05559 93.531407 C 280.833012 92.640899 282.929317 92.197032 285.336185 92.197032 C 287.898335 92.197032 290.222016 92.446707 292.301684 92.943283 C 294.40908 93.423214 296.655121 93.661793 299.042579 93.661793 C 300.301471 93.661793 301.441128 93.509214 302.458779 93.206829 C 303.479202 92.879477 304.835145 92.055549 306.526608 90.732271 C 308.481495 89.320219 310.306057 87.858232 311.994747 86.335214 C 313.688982 84.817744 315.025515 83.613755 315.998799 82.723247 C 317.584892 81.313969 318.602543 80.739716 319.06007 81.000488 C 319.778248 81.347259 319.592464 81.963124 318.505492 82.853633 C 317.096864 84.287878 315.632778 85.655543 314.113234 86.956628 C 312.615874 88.235519 310.835679 89.76686 308.772649 91.545102 C 306.127312 93.758889 303.978322 95.451132 302.328453 96.624605 C 300.678584 97.773111 299.247773 98.544329 298.033247 98.935487 C 296.838131 99.326645 295.537646 99.520837 294.126245 99.520837 C 291.891296 99.520837 289.689622 99.032583 287.518449 98.056076 C 285.347276 97.079568 282.613207 96.591315 279.316241 96.591315 C 278.708978 96.591315 278.046258 96.635702 277.328079 96.721701 C 276.612674 96.810474 275.855675 96.990795 275.051537 97.27376 C 274.704926 97.623305 274.333358 98.000592 273.945154 98.413944 C 273.531993 98.805101 273.152107 99.129679 272.805496 99.390451 C 271.915399 100.192186 271.285953 100.59444 270.917158 100.59444 Z M 270.917158 100.59444 " stroke="#000000" stroke-width="2.5" stroke-opacity="1" stroke-miterlimit="4"/><path fill="#ffffff" d="M 354.082031 117.5625 C 353.957031 117.945312 353.417969 117.886719 352.476562 117.386719 C 351.539062 116.882812 349.503906 116.625 346.382812 116.625 C 341.621094 116.625 336.265625 118.097656 330.3125 121.042969 C 324.363281 123.988281 318.136719 127.871094 311.628906 132.6875 C 305.121094 137.507812 298.578125 142.855469 292 148.738281 C 285.425781 154.617188 279.132812 160.5625 273.117188 166.566406 C 267.109375 172.574219 261.660156 178.148438 256.78125 183.285156 C 247.636719 193.046875 239.65625 202 232.835938 210.132812 C 226.011719 218.265625 220.847656 224.894531 217.339844 230.027344 C 214.957031 233.410156 213.109375 235.847656 211.796875 237.347656 C 210.484375 238.847656 209.140625 239.597656 207.765625 239.597656 C 206.632812 239.597656 205.8125 238.816406 205.316406 237.253906 C 204.8125 235.695312 205.25 233.285156 206.628906 230.027344 C 207.886719 227.144531 210.136719 223.488281 213.390625 219.050781 C 216.648438 214.605469 220.5 209.757812 224.945312 204.5 C 229.390625 199.238281 234.117188 193.945312 239.128906 188.625 C 244.136719 183.308594 249.019531 178.394531 253.777344 173.890625 C 268.304688 160.121094 281.792969 148.765625 294.25 139.820312 C 306.710938 130.871094 317.824219 124.332031 327.59375 120.199219 C 314.066406 124.082031 301.703125 129.308594 290.5 135.875 C 279.292969 142.441406 268.492188 149.421875 258.09375 156.808594 C 247.074219 164.5625 236.929688 172.074219 227.664062 179.335938 C 218.398438 186.59375 209.410156 193.914062 200.710938 201.300781 C 192.011719 208.691406 182.839844 216.449219 173.203125 224.578125 C 172.324219 225.960938 171.386719 227.402344 170.378906 228.902344 C 169.375 230.402344 168.375 231.777344 167.375 233.027344 C 164.617188 236.410156 162.363281 238.628906 160.613281 239.691406 C 158.863281 240.761719 157.609375 241.042969 156.851562 240.535156 C 155.976562 240.035156 155.789062 239.003906 156.289062 237.441406 C 156.789062 235.882812 157.855469 234.285156 159.488281 232.652344 C 161.863281 230.152344 163.863281 228.246094 165.488281 226.933594 C 167.121094 225.617188 168.875 224.203125 170.753906 222.703125 C 173.382812 218.824219 176.484375 214.035156 180.046875 208.34375 C 183.613281 202.648438 187.25 196.925781 190.945312 191.167969 C 194.640625 185.40625 197.992188 180.398438 201.003906 176.148438 C 205.128906 170.261719 209.851562 164.222656 215.171875 158.027344 C 220.5 151.835938 226.386719 146.046875 232.835938 140.664062 C 239.28125 135.285156 246.199219 131.03125 253.589844 127.894531 C 249.207031 128.773438 243.914062 130.527344 237.710938 133.15625 C 231.511719 135.78125 224.535156 139.84375 216.777344 145.351562 C 210.636719 149.734375 204.71875 154.394531 199.019531 159.339844 C 193.324219 164.28125 186.910156 170.324219 179.777344 177.460938 C 172.511719 184.71875 166.246094 191.003906 160.988281 196.324219 C 155.730469 201.640625 151.066406 206.304688 146.996094 210.308594 C 142.921875 214.316406 138.945312 218.011719 135.0625 221.394531 C 123.546875 231.40625 112.054688 238.757812 100.59375 243.453125 C 89.136719 248.144531 78.277344 250.492188 68.011719 250.492188 C 58.121094 250.492188 50.855469 248.425781 46.222656 244.296875 C 41.589844 240.164062 39.148438 234.660156 38.898438 227.777344 C 38.523438 219.640625 40.714844 211.785156 45.472656 204.21875 C 50.230469 196.644531 57.242188 189.605469 66.511719 183.097656 C 72.394531 178.839844 78.589844 175.558594 85.101562 173.246094 C 91.617188 170.925781 97.5625 169.324219 102.949219 168.441406 C 102.074219 167.816406 101.195312 166.660156 100.3125 164.972656 C 99.4375 163.285156 98.875 161.191406 98.625 158.683594 C 98.25 150.171875 101.441406 142.503906 108.199219 135.6875 C 114.964844 128.867188 124.796875 123.488281 137.6875 119.542969 C 150.585938 115.601562 165.804688 113.628906 183.339844 113.628906 C 193.730469 113.628906 203.464844 114.160156 212.546875 115.21875 C 221.625 116.285156 229.730469 117.503906 236.867188 118.886719 C 244.007812 120.261719 249.769531 121.574219 254.152344 122.824219 C 256.652344 123.449219 259.3125 124.265625 262.136719 125.273438 C 264.953125 126.273438 267.117188 127.144531 268.617188 127.894531 C 269.242188 128.269531 269.835938 128.710938 270.398438 129.207031 C 270.960938 129.707031 271.054688 130.144531 270.679688 130.519531 C 270.554688 130.773438 269.554688 130.457031 267.679688 129.582031 C 266.804688 129.085938 265.769531 128.617188 264.574219 128.175781 C 263.382812 127.742188 262.230469 127.460938 261.105469 127.332031 C 259.980469 127.085938 258.410156 127.332031 256.402344 128.082031 C 254.402344 128.832031 252.023438 130.339844 249.265625 132.59375 C 243.507812 137.351562 237.492188 143.828125 231.230469 152.027344 C 224.96875 160.222656 218.523438 168.636719 211.890625 177.273438 C 207.132812 183.40625 202.308594 189.511719 197.425781 195.585938 C 192.542969 201.652344 187.535156 207.441406 182.402344 212.945312 C 188.410156 208.316406 195.199219 202.714844 202.773438 196.148438 C 210.347656 189.570312 218.710938 182.5 227.851562 174.929688 C 236.996094 167.359375 246.886719 159.9375 257.53125 152.671875 C 263.296875 148.792969 269.839844 144.632812 277.160156 140.195312 C 284.488281 135.753906 292.128906 131.59375 300.074219 127.707031 C 308.027344 123.828125 315.945312 120.667969 323.832031 118.230469 C 331.722656 115.789062 339.113281 114.5625 346.007812 114.5625 C 349.128906 114.5625 351.320312 114.972656 352.570312 115.78125 C 353.828125 116.597656 354.332031 117.1875 354.082031 117.5625 Z M 257.34375 125.835938 C 249.582031 123.953125 239.316406 122.230469 226.539062 120.667969 C 213.765625 119.105469 199.679688 118.324219 184.277344 118.324219 C 173.261719 118.324219 162.710938 119.261719 152.632812 121.136719 C 142.554688 123.011719 133.597656 125.734375 125.769531 129.300781 C 117.945312 132.871094 111.84375 137.191406 107.460938 142.257812 C 103.078125 147.328125 101.074219 153.113281 101.449219 159.621094 C 101.574219 161.378906 102.105469 163.164062 103.042969 164.972656 C 103.980469 166.785156 104.886719 167.816406 105.761719 168.066406 C 109.144531 167.691406 112.277344 167.503906 115.164062 167.503906 C 122.667969 167.503906 128.679688 169.070312 133.1875 172.203125 C 137.695312 175.335938 139.949219 179.652344 139.949219 185.160156 C 139.949219 187.910156 139.449219 190.191406 138.449219 192.011719 C 137.449219 193.824219 136.574219 194.480469 135.824219 193.980469 C 135.316406 193.730469 135.40625 193.042969 136.09375 191.917969 C 136.789062 190.789062 137.136719 188.660156 137.136719 185.535156 C 137.136719 180.527344 135.070312 176.683594 130.9375 173.996094 C 126.804688 171.300781 121.609375 169.953125 115.351562 169.953125 C 108.457031 169.953125 100.972656 171.488281 92.894531 174.554688 C 84.820312 177.621094 76.902344 181.902344 69.136719 187.40625 C 64.253906 190.789062 59.773438 194.703125 55.707031 199.144531 C 51.640625 203.59375 48.355469 208.253906 45.847656 213.132812 C 43.347656 218.015625 42.097656 222.898438 42.097656 227.777344 C 42.097656 234.035156 44.128906 238.878906 48.191406 242.316406 C 52.261719 245.761719 58.054688 247.480469 65.574219 247.480469 C 71.957031 247.480469 78.871094 246.101562 86.320312 243.347656 C 93.773438 240.597656 101.378906 236.84375 109.136719 232.089844 C 116.902344 227.332031 124.355469 222.015625 131.5 216.132812 C 135.882812 212.628906 140.011719 209.09375 143.890625 205.53125 C 147.769531 201.964844 151.96875 197.988281 156.476562 193.605469 C 160.984375 189.222656 166.371094 184.09375 172.640625 178.210938 C 178.023438 173.207031 182.8125 168.792969 187.007812 164.972656 C 191.203125 161.15625 195.394531 157.558594 199.585938 154.183594 C 203.78125 150.804688 208.507812 147.296875 213.765625 143.664062 C 222.65625 137.410156 230.730469 133 237.992188 130.4375 C 245.257812 127.871094 251.707031 126.335938 257.34375 125.835938 Z M 257.34375 125.835938 " fill-opacity="1" fill-rule="nonzero"/><path fill="#ffffff" d="M 324.957031 182.335938 C 319.570312 187.21875 314.410156 192.164062 309.464844 197.179688 C 304.515625 202.1875 300.101562 206.785156 296.21875 210.976562 C 292.332031 215.167969 289.269531 218.636719 287.019531 221.394531 C 284.757812 224.144531 282.816406 226.613281 281.195312 228.808594 C 279.566406 230.996094 278.757812 232.65625 278.757812 233.789062 C 278.757812 234.910156 279.378906 235.472656 280.632812 235.472656 C 281.878906 235.472656 283.539062 234.910156 285.601562 233.789062 C 287.667969 232.65625 289.765625 231.308594 291.894531 229.746094 C 294.027344 228.183594 295.78125 226.898438 297.15625 225.890625 C 300.164062 223.394531 303.324219 220.738281 306.636719 217.925781 C 309.957031 215.109375 312.875 212.628906 315.382812 210.496094 C 315.878906 210.25 316.320312 210.03125 316.695312 209.84375 C 317.070312 209.65625 317.445312 209.75 317.820312 210.125 C 318.445312 210.75 318.257812 211.441406 317.257812 212.195312 C 315.503906 213.695312 313.472656 215.449219 311.152344 217.457031 C 308.835938 219.457031 306.582031 221.363281 304.386719 223.171875 C 302.199219 224.988281 300.414062 226.460938 299.03125 227.589844 C 296.03125 229.839844 292.714844 232.21875 289.082031 234.722656 C 285.449219 237.222656 282.191406 238.472656 279.320312 238.472656 C 276.808594 238.472656 275.085938 237.878906 274.148438 236.691406 C 273.210938 235.507812 272.742188 233.972656 272.742188 232.089844 C 272.742188 229.339844 273.929688 225.960938 276.304688 221.957031 C 275.054688 223.207031 273.832031 224.304688 272.636719 225.246094 C 271.449219 226.183594 270.480469 226.964844 269.730469 227.589844 C 266.855469 229.964844 263.476562 232.375 259.59375 234.816406 C 255.707031 237.253906 252.332031 238.472656 249.457031 238.472656 C 247.074219 238.472656 245.410156 237.941406 244.472656 236.878906 C 243.535156 235.820312 243.066406 234.472656 243.066406 232.839844 C 243.066406 229.714844 244.320312 226.121094 246.828125 222.050781 C 249.332031 217.980469 252.710938 213.632812 256.96875 209 C 259.46875 206.375 262.46875 203.527344 265.980469 200.457031 C 269.488281 197.390625 273.023438 194.511719 276.585938 191.824219 C 280.15625 189.128906 283.199219 187.097656 285.707031 185.722656 C 287.082031 184.847656 289.050781 184.222656 291.613281 183.847656 C 294.183594 183.472656 296.09375 183.347656 297.34375 183.472656 C 291.835938 187.96875 286.421875 192.632812 281.101562 197.460938 C 275.777344 202.28125 271.082031 206.785156 267.011719 210.976562 C 262.9375 215.167969 259.78125 218.636719 257.53125 221.394531 C 255.269531 224.144531 253.359375 226.613281 251.800781 228.808594 C 250.238281 230.996094 249.457031 232.65625 249.457031 233.789062 C 249.457031 234.910156 250.019531 235.472656 251.144531 235.472656 C 252.394531 235.472656 254.078125 234.910156 256.207031 233.789062 C 258.339844 232.65625 260.53125 231.308594 262.78125 229.746094 C 265.039062 228.183594 266.917969 226.777344 268.417969 225.515625 C 270.042969 224.269531 272.078125 222.550781 274.523438 220.363281 C 276.96875 218.167969 279.285156 215.976562 281.476562 213.789062 C 283.660156 211.597656 285.261719 210 286.269531 209 C 288.769531 206.375 291.769531 203.433594 295.28125 200.175781 C 298.789062 196.921875 302.292969 193.824219 305.792969 190.886719 C 309.300781 187.945312 312.3125 185.722656 314.820312 184.222656 C 315.820312 183.597656 317.445312 183.097656 319.695312 182.722656 C 321.953125 182.339844 323.707031 182.210938 324.957031 182.335938 Z M 324.957031 182.335938 " fill-opacity="1" fill-rule="nonzero"/><path fill="#ffffff" d="M 386.183594 211.246094 C 386.683594 211.757812 386.683594 212.289062 386.183594 212.851562 C 385.683594 213.414062 385.183594 213.882812 384.683594 214.257812 C 381.804688 216.757812 378.523438 219.542969 374.828125 222.609375 C 371.128906 225.679688 367.527344 228.464844 364.019531 230.964844 C 360.519531 233.347656 357.203125 235.257812 354.070312 236.691406 C 350.933594 238.128906 348.246094 238.847656 345.996094 238.847656 C 341.484375 238.847656 339.230469 236.597656 339.230469 232.089844 C 339.230469 229.089844 340.605469 225.652344 343.359375 221.769531 C 345.738281 218.511719 348.058594 215.730469 350.308594 213.414062 C 352.5625 211.09375 355.636719 208.1875 359.519531 204.6875 C 361.519531 202.929688 364.019531 200.773438 367.019531 198.207031 C 370.027344 195.640625 372.71875 193.199219 375.097656 190.886719 C 377.480469 188.566406 378.671875 186.910156 378.671875 185.910156 C 378.671875 185.160156 378.230469 184.785156 377.359375 184.785156 C 375.730469 184.785156 373.105469 185.691406 369.46875 187.5 C 365.835938 189.3125 361.734375 191.660156 357.164062 194.542969 C 352.59375 197.425781 348.085938 200.492188 343.640625 203.75 C 339.199219 207 335.476562 210.066406 332.46875 212.945312 C 329.335938 215.824219 326.609375 218.511719 324.289062 221.019531 C 321.972656 223.519531 319.601562 226.179688 317.164062 228.996094 C 314.71875 231.808594 311.871094 235.34375 308.617188 239.597656 C 307.863281 239.597656 307.265625 239.160156 306.824219 238.285156 C 306.390625 237.410156 306.167969 236.410156 306.167969 235.285156 C 306.167969 233.90625 307.234375 231.464844 309.367188 227.964844 C 311.496094 224.460938 314.4375 220.328125 318.195312 215.570312 C 321.949219 210.8125 326.273438 205.933594 331.15625 200.925781 C 334.15625 197.671875 337.222656 194.699219 340.355469 192.011719 C 343.488281 189.316406 346.183594 187.21875 348.433594 185.722656 C 350.054688 184.722656 352.058594 183.972656 354.433594 183.472656 C 356.816406 182.964844 359.199219 182.710938 361.582031 182.710938 C 358.324219 184.96875 354.316406 188.226562 349.558594 192.480469 C 344.800781 196.738281 340.351562 201.242188 336.21875 206 C 335.96875 206.25 335.875 206.4375 335.9375 206.5625 C 336 206.6875 336.09375 206.6875 336.21875 206.5625 C 338.601562 204.554688 341.671875 202.175781 345.421875 199.425781 C 349.175781 196.671875 353.183594 193.949219 357.445312 191.261719 C 361.703125 188.566406 365.742188 186.347656 369.566406 184.597656 C 373.386719 182.839844 376.542969 181.960938 379.046875 181.960938 C 381.179688 181.960938 382.714844 182.496094 383.652344 183.566406 C 384.589844 184.628906 385.058594 185.847656 385.058594 187.21875 C 385.058594 189.351562 384.054688 191.796875 382.046875 194.554688 C 380.046875 197.304688 377.699219 200.023438 375.003906 202.71875 C 372.3125 205.40625 369.847656 207.75 367.59375 209.75 C 364.585938 212.507812 361.828125 215.109375 359.320312 217.550781 C 356.820312 219.988281 354.566406 222.269531 352.570312 224.390625 C 350.183594 226.898438 348.460938 228.871094 347.402344 230.308594 C 346.335938 231.746094 345.808594 232.96875 345.808594 233.976562 C 345.808594 235.226562 346.492188 235.847656 347.871094 235.847656 C 349.371094 235.847656 351.589844 235.097656 354.539062 233.601562 C 357.484375 232.09375 360.519531 230.277344 363.644531 228.152344 C 366.902344 225.769531 370.410156 222.984375 374.160156 219.800781 C 377.914062 216.605469 381.050781 214.007812 383.558594 212.007812 C 383.933594 211.628906 384.371094 211.3125 384.871094 211.058594 C 385.371094 210.8125 385.808594 210.871094 386.183594 211.246094 Z M 394.445312 164.503906 C 393.445312 166.753906 391.816406 168.976562 389.558594 171.171875 C 387.308594 173.359375 384.746094 174.449219 381.871094 174.449219 C 379.738281 174.449219 377.796875 173.984375 376.046875 173.046875 C 374.292969 172.109375 372.601562 171.171875 370.972656 170.234375 C 369.34375 169.296875 367.59375 168.828125 365.71875 168.828125 C 363.960938 168.828125 362.425781 169.265625 361.113281 170.140625 C 359.800781 171.015625 358.703125 172.078125 357.820312 173.328125 C 357.570312 173.578125 357.320312 173.859375 357.070312 174.167969 C 356.820312 174.484375 356.570312 174.578125 356.320312 174.449219 C 355.570312 174.203125 355.570312 173.390625 356.320312 172.015625 C 357.320312 169.890625 358.976562 167.796875 361.289062 165.734375 C 363.609375 163.667969 366.085938 162.628906 368.71875 162.628906 C 370.84375 162.628906 372.71875 163.097656 374.347656 164.035156 C 375.976562 164.972656 377.640625 165.910156 379.328125 166.847656 C 381.019531 167.785156 382.808594 168.253906 384.683594 168.253906 C 386.433594 168.253906 387.996094 167.785156 389.371094 166.847656 C 390.753906 165.910156 391.882812 164.757812 392.757812 163.378906 C 393.257812 162.628906 393.820312 162.320312 394.445312 162.441406 C 394.828125 162.695312 394.828125 163.378906 394.445312 164.503906 Z M 394.445312 164.503906 " fill-opacity="1" fill-rule="nonzero"/><path fill="#ffffff" d="M 435.203125 181.585938 C 439.960938 181.585938 442.339844 183.402344 442.339844 187.03125 C 442.339844 189.792969 440.960938 193.515625 438.203125 198.207031 C 435.453125 202.902344 431.136719 208.191406 425.253906 214.070312 C 417.742188 221.703125 410.667969 227.738281 404.027344 232.183594 C 397.394531 236.628906 392.195312 238.847656 388.441406 238.847656 C 383.058594 238.847656 380.363281 235.90625 380.363281 230.027344 C 380.363281 226.648438 381.652344 222.546875 384.21875 217.726562 C 386.785156 212.910156 390.378906 208.121094 395.015625 203.363281 C 399.398438 198.980469 404.03125 195.167969 408.914062 191.917969 C 413.796875 188.660156 418.554688 186.128906 423.191406 184.316406 C 427.824219 182.496094 431.828125 181.585938 435.203125 181.585938 Z M 439.339844 186.28125 C 439.339844 184.910156 438.589844 184.222656 437.089844 184.222656 C 434.207031 184.222656 429.570312 186.632812 423.179688 191.449219 C 416.792969 196.269531 409.722656 202.621094 401.964844 210.496094 C 397.703125 215.132812 393.917969 219.511719 390.597656 223.640625 C 387.285156 227.773438 385.625 231.027344 385.625 233.402344 C 385.625 235.53125 386.628906 236.597656 388.628906 236.597656 C 391.511719 236.597656 396.082031 234.035156 402.339844 228.902344 C 408.597656 223.769531 415.550781 217.261719 423.191406 209.375 C 425.316406 207.125 427.625 204.527344 430.128906 201.582031 C 432.636719 198.640625 434.796875 195.761719 436.609375 192.949219 C 438.429688 190.132812 439.339844 187.910156 439.339844 186.28125 Z M 439.339844 186.28125 " fill-opacity="1" fill-rule="nonzero"/><path fill="#ffffff" d="M 419.621094 239.410156 C 418.996094 239.410156 418.683594 239.160156 418.683594 238.660156 C 418.683594 237.785156 419.371094 236.785156 420.746094 235.660156 C 421.371094 235.039062 422.21875 234.347656 423.289062 233.601562 C 424.351562 232.84375 425.382812 232.214844 426.382812 231.714844 C 428.507812 229.839844 431.386719 227.433594 435.019531 224.496094 C 438.652344 221.554688 442.597656 218.453125 446.847656 215.195312 C 451.105469 211.9375 455.238281 209.0625 459.246094 206.5625 C 464.878906 202.929688 470.261719 199.835938 475.398438 197.273438 C 480.535156 194.703125 485.421875 192.226562 490.058594 189.84375 C 490.433594 189.59375 490.652344 189.441406 490.714844 189.375 C 490.777344 189.3125 490.558594 189.40625 490.058594 189.65625 C 487.925781 190.289062 485.421875 190.605469 482.546875 190.605469 C 480.289062 190.605469 478.1875 190.449219 476.242188 190.136719 C 474.300781 189.816406 472.398438 189.65625 470.519531 189.65625 C 467.261719 189.65625 464.410156 190.414062 461.964844 191.917969 C 459.527344 193.417969 456.742188 195.984375 453.621094 199.613281 C 453.109375 200.492188 452.484375 200.738281 451.734375 200.363281 C 451.234375 199.988281 451.234375 199.367188 451.734375 198.488281 C 455.113281 193.484375 458.183594 189.828125 460.933594 187.511719 C 463.691406 185.195312 466.289062 183.722656 468.726562 183.097656 C 471.171875 182.464844 473.464844 182.148438 475.597656 182.148438 C 478.84375 182.148438 481.8125 182.808594 484.503906 184.128906 C 487.199219 185.441406 490.300781 186.097656 493.808594 186.097656 C 495.558594 186.097656 496.875 185.910156 497.757812 185.535156 C 498.757812 184.910156 499.820312 184.316406 500.949219 183.753906 C 502.074219 183.183594 502.882812 182.898438 503.386719 182.898438 C 504.265625 182.898438 504.710938 183.214844 504.710938 183.847656 C 504.710938 184.597656 503.890625 185.347656 502.261719 186.097656 C 501.511719 186.46875 500.601562 186.878906 499.539062 187.3125 C 498.476562 187.753906 497.253906 188.15625 495.871094 188.53125 C 491.996094 190.542969 487.144531 193.515625 481.316406 197.460938 C 475.492188 201.394531 469.453125 205.367188 463.195312 209.375 C 458.6875 212.253906 453.363281 215.511719 447.222656 219.144531 C 441.089844 222.769531 435.707031 226.207031 431.070312 229.464844 C 433.578125 228.214844 436.527344 227.589844 439.90625 227.589844 C 443.53125 227.589844 446.816406 227.9375 449.765625 228.621094 C 452.710938 229.308594 455.871094 229.652344 459.246094 229.652344 C 461.003906 229.652344 462.601562 229.433594 464.039062 228.996094 C 465.476562 228.558594 467.386719 227.398438 469.769531 225.515625 C 472.519531 223.519531 475.082031 221.457031 477.460938 219.332031 C 479.84375 217.199219 481.726562 215.507812 483.109375 214.257812 C 485.359375 212.253906 486.796875 211.433594 487.421875 211.808594 C 488.421875 212.320312 488.171875 213.199219 486.671875 214.445312 C 484.671875 216.445312 482.605469 218.355469 480.472656 220.175781 C 478.34375 221.988281 475.84375 224.144531 472.960938 226.652344 C 469.199219 229.777344 466.160156 232.15625 463.839844 233.789062 C 461.527344 235.414062 459.527344 236.503906 457.839844 237.066406 C 456.152344 237.628906 454.304688 237.910156 452.296875 237.910156 C 449.167969 237.910156 446.074219 237.222656 443 235.847656 C 439.929688 234.476562 436.082031 233.789062 431.445312 233.789062 C 430.574219 233.789062 429.636719 233.851562 428.632812 233.976562 C 427.632812 234.101562 426.570312 234.347656 425.445312 234.722656 C 424.945312 235.226562 424.414062 235.753906 423.851562 236.316406 C 423.28125 236.878906 422.746094 237.347656 422.246094 237.722656 C 420.996094 238.847656 420.121094 239.410156 419.621094 239.410156 Z M 419.621094 239.410156 " fill-opacity="1" fill-rule="nonzero"/><path fill="#c70d0d" d="M 74.113281 271.03125 L 74.113281 277.96875 L 70.65625 277.96875 L 70.65625 271.03125 Z M 70.65625 288.347656 L 70.65625 284.890625 L 74.113281 284.890625 L 74.113281 288.347656 Z M 74.113281 291.816406 L 74.113281 288.347656 L 84.507812 288.347656 L 84.507812 291.816406 Z M 74.113281 281.421875 L 74.113281 277.96875 L 84.507812 277.96875 L 84.507812 281.421875 Z M 74.113281 271.03125 L 74.113281 267.578125 L 84.507812 267.578125 L 84.507812 271.03125 Z M 84.507812 288.347656 L 84.507812 281.421875 L 87.976562 281.421875 L 87.976562 288.347656 Z M 84.507812 274.5 L 84.507812 271.03125 L 87.976562 271.03125 L 87.976562 274.5 Z M 84.507812 274.5 " fill-opacity="1" fill-rule="nonzero"/><path fill="#c70d0d" d="M 95.839844 291.816406 L 95.839844 271.03125 L 88.914062 271.03125 L 88.914062 267.578125 L 106.234375 267.578125 L 106.234375 271.03125 L 99.308594 271.03125 L 99.308594 291.816406 Z M 95.839844 291.816406 " fill-opacity="1" fill-rule="nonzero"/><path fill="#c70d0d" d="M 121.023438 288.347656 L 121.023438 291.816406 L 110.628906 291.816406 L 110.628906 288.347656 Z M 107.171875 288.347656 L 107.171875 267.578125 L 110.628906 267.578125 L 110.628906 288.347656 Z M 121.023438 288.347656 L 121.023438 267.578125 L 124.492188 267.578125 L 124.492188 288.347656 Z M 121.023438 288.347656 " fill-opacity="1" fill-rule="nonzero"/><path fill="#c70d0d" d="M 125.425781 291.816406 L 125.425781 267.578125 L 139.28125 267.578125 L 139.28125 271.03125 L 128.886719 271.03125 L 128.886719 288.347656 L 139.28125 288.347656 L 139.28125 291.816406 Z M 139.28125 288.347656 L 139.28125 271.03125 L 142.75 271.03125 L 142.75 288.347656 Z M 139.28125 288.347656 " fill-opacity="1" fill-rule="nonzero"/><path fill="#c70d0d" d="M 143.683594 291.816406 L 143.683594 267.578125 L 161.007812 267.578125 L 161.007812 271.03125 L 147.144531 271.03125 L 147.144531 277.96875 L 157.539062 277.96875 L 157.539062 281.421875 L 147.144531 281.421875 L 147.144531 288.347656 L 160.972656 288.347656 L 160.972656 291.816406 Z M 143.683594 291.816406 " fill-opacity="1" fill-rule="nonzero"/><path fill="#c70d0d" d="M 175.796875 291.816406 L 175.796875 281.421875 L 172.339844 281.421875 L 172.339844 277.96875 L 175.796875 277.96875 L 175.796875 267.578125 L 179.265625 267.578125 L 179.265625 291.816406 Z M 161.941406 291.816406 L 161.941406 267.578125 L 165.398438 267.578125 L 165.398438 271.03125 L 168.871094 271.03125 L 168.871094 274.5 L 165.398438 274.5 L 165.398438 291.816406 Z M 168.871094 277.96875 L 168.871094 274.5 L 172.339844 274.5 L 172.339844 277.96875 Z M 168.871094 277.96875 " fill-opacity="1" fill-rule="nonzero"/><path fill="#c70d0d" d="M 187.125 291.816406 L 187.125 271.03125 L 180.199219 271.03125 L 180.199219 267.578125 L 197.523438 267.578125 L 197.523438 271.03125 L 190.597656 271.03125 L 190.597656 291.816406 Z M 187.125 291.816406 " fill-opacity="1" fill-rule="nonzero"/><path fill="#c70d0d" d="M 436.554688 291.816406 L 436.554688 271.03125 L 440.015625 271.03125 L 440.015625 281.421875 L 450.410156 281.421875 L 450.410156 271.03125 L 453.878906 271.03125 L 453.878906 291.816406 L 450.410156 291.816406 L 450.410156 284.890625 L 440.015625 284.890625 L 440.015625 291.816406 Z M 440.015625 271.03125 L 440.015625 267.578125 L 450.410156 267.578125 L 450.410156 271.03125 Z M 440.015625 271.03125 " fill-opacity="1" fill-rule="nonzero"/><path fill="#c70d0d" d="M 458.269531 271.03125 L 458.269531 277.96875 L 454.8125 277.96875 L 454.8125 271.03125 Z M 454.8125 288.347656 L 454.8125 284.890625 L 458.269531 284.890625 L 458.269531 288.347656 Z M 458.269531 291.816406 L 458.269531 288.347656 L 468.667969 288.347656 L 468.667969 291.816406 Z M 458.269531 281.421875 L 458.269531 277.96875 L 468.667969 277.96875 L 468.667969 281.421875 Z M 458.269531 271.03125 L 458.269531 267.578125 L 468.667969 267.578125 L 468.667969 271.03125 Z M 468.667969 288.347656 L 468.667969 281.421875 L 472.136719 281.421875 L 472.136719 288.347656 Z M 468.667969 274.5 L 468.667969 271.03125 L 472.136719 271.03125 L 472.136719 274.5 Z M 468.667969 274.5 " fill-opacity="1" fill-rule="nonzero"/><path fill="#c70d0d" d="M 473.070312 291.816406 L 473.070312 267.578125 L 486.925781 267.578125 L 486.925781 271.03125 L 476.527344 271.03125 L 476.527344 277.96875 L 486.925781 277.96875 L 486.925781 281.421875 L 476.527344 281.421875 L 476.527344 291.816406 Z M 486.925781 277.96875 L 486.925781 271.03125 L 490.394531 271.03125 L 490.394531 277.96875 Z M 486.925781 277.96875 " fill-opacity="1" fill-rule="nonzero"/><path fill="#c70d0d" d="M 491.328125 267.578125 L 494.785156 267.578125 L 494.785156 291.816406 L 491.328125 291.816406 Z M 491.328125 267.578125 " fill-opacity="1" fill-rule="nonzero"/><path fill="#c70d0d" d="M 495.730469 291.816406 L 495.730469 267.578125 L 509.582031 267.578125 L 509.582031 271.03125 L 499.1875 271.03125 L 499.1875 277.96875 L 509.582031 277.96875 L 509.582031 281.421875 L 506.125 281.421875 L 506.125 284.890625 L 502.65625 284.890625 L 502.65625 281.421875 L 499.1875 281.421875 L 499.1875 291.816406 Z M 506.125 288.347656 L 506.125 284.890625 L 509.582031 284.890625 L 509.582031 288.347656 Z M 509.582031 291.816406 L 509.582031 288.347656 L 513.050781 288.347656 L 513.050781 291.816406 Z M 509.582031 277.96875 L 509.582031 271.03125 L 513.050781 271.03125 L 513.050781 277.96875 Z M 509.582031 277.96875 " fill-opacity="1" fill-rule="nonzero"/><path fill="#c70d0d" d="M 513.984375 267.578125 L 517.445312 267.578125 L 517.445312 291.816406 L 513.984375 291.816406 Z M 513.984375 267.578125 " fill-opacity="1" fill-rule="nonzero"/><path fill="#c70d0d" d="M 532.238281 291.816406 L 532.238281 281.421875 L 528.78125 281.421875 L 528.78125 277.96875 L 532.238281 277.96875 L 532.238281 267.578125 L 535.707031 267.578125 L 535.707031 291.816406 Z M 518.386719 291.816406 L 518.386719 267.578125 L 521.84375 267.578125 L 521.84375 271.03125 L 525.3125 271.03125 L 525.3125 274.5 L 521.84375 274.5 L 521.84375 291.816406 Z M 525.3125 277.96875 L 525.3125 274.5 L 528.78125 274.5 L 528.78125 277.96875 Z M 525.3125 277.96875 " fill-opacity="1" fill-rule="nonzero"/><path fill="#c70d0d" d="M 550.496094 288.347656 L 550.496094 291.816406 L 540.101562 291.816406 L 540.101562 288.347656 Z M 536.644531 288.347656 L 536.644531 271.03125 L 540.101562 271.03125 L 540.101562 288.347656 Z M 540.101562 271.03125 L 540.101562 267.578125 L 550.496094 267.578125 L 550.496094 271.03125 Z M 547.039062 281.421875 L 547.039062 277.96875 L 553.964844 277.96875 L 553.964844 288.347656 L 550.496094 288.347656 L 550.496094 281.421875 Z M 550.496094 274.5 L 550.496094 271.03125 L 553.964844 271.03125 L 553.964844 274.5 Z M 550.496094 274.5 " fill-opacity="1" fill-rule="nonzero"/><path fill="#c70d0d" d="M 561.03125 291.816406 L 561.03125 267.578125 L 578.355469 267.578125 L 578.355469 271.03125 L 564.492188 271.03125 L 564.492188 277.96875 L 574.886719 277.96875 L 574.886719 281.421875 L 564.492188 281.421875 L 564.492188 288.347656 L 578.320312 288.347656 L 578.320312 291.816406 Z M 561.03125 291.816406 " fill-opacity="1" fill-rule="nonzero"/><path fill="#c70d0d" d="M 593.144531 291.816406 L 593.144531 281.421875 L 589.6875 281.421875 L 589.6875 277.96875 L 593.144531 277.96875 L 593.144531 267.578125 L 596.613281 267.578125 L 596.613281 291.816406 Z M 579.289062 291.816406 L 579.289062 267.578125 L 582.746094 267.578125 L 582.746094 271.03125 L 586.21875 271.03125 L 586.21875 274.5 L 582.746094 274.5 L 582.746094 291.816406 Z M 586.21875 277.96875 L 586.21875 274.5 L 589.6875 274.5 L 589.6875 277.96875 Z M 586.21875 277.96875 " fill-opacity="1" fill-rule="nonzero"/><path fill="#c70d0d" d="M 611.402344 288.347656 L 611.402344 291.816406 L 601.003906 291.816406 L 601.003906 288.347656 Z M 597.546875 288.347656 L 597.546875 271.03125 L 601.003906 271.03125 L 601.003906 288.347656 Z M 601.003906 271.03125 L 601.003906 267.578125 L 611.402344 267.578125 L 611.402344 271.03125 Z M 607.945312 281.421875 L 607.945312 277.96875 L 614.871094 277.96875 L 614.871094 288.347656 L 611.402344 288.347656 L 611.402344 281.421875 Z M 611.402344 274.5 L 611.402344 271.03125 L 614.871094 271.03125 L 614.871094 274.5 Z M 611.402344 274.5 " fill-opacity="1" fill-rule="nonzero"/><path fill="#c70d0d" d="M 615.804688 267.578125 L 619.261719 267.578125 L 619.261719 291.816406 L 615.804688 291.816406 Z M 615.804688 267.578125 " fill-opacity="1" fill-rule="nonzero"/><path fill="#c70d0d" d="M 634.058594 291.816406 L 634.058594 281.421875 L 630.601562 281.421875 L 630.601562 277.96875 L 634.058594 277.96875 L 634.058594 267.578125 L 637.527344 267.578125 L 637.527344 291.816406 Z M 620.203125 291.816406 L 620.203125 267.578125 L 623.664062 267.578125 L 623.664062 271.03125 L 627.132812 271.03125 L 627.132812 274.5 L 623.664062 274.5 L 623.664062 291.816406 Z M 627.132812 277.96875 L 627.132812 274.5 L 630.601562 274.5 L 630.601562 277.96875 Z M 627.132812 277.96875 " fill-opacity="1" fill-rule="nonzero"/><path fill="#c70d0d" d="M 638.460938 291.816406 L 638.460938 267.578125 L 655.785156 267.578125 L 655.785156 271.03125 L 641.921875 271.03125 L 641.921875 277.96875 L 652.316406 277.96875 L 652.316406 281.421875 L 641.921875 281.421875 L 641.921875 288.347656 L 655.75 288.347656 L 655.75 291.816406 Z M 638.460938 291.816406 " fill-opacity="1" fill-rule="nonzero"/><path fill="#c70d0d" d="M 656.71875 291.816406 L 656.71875 267.578125 L 674.042969 267.578125 L 674.042969 271.03125 L 660.175781 271.03125 L 660.175781 277.96875 L 670.574219 277.96875 L 670.574219 281.421875 L 660.175781 281.421875 L 660.175781 288.347656 L 674.007812 288.347656 L 674.007812 291.816406 Z M 656.71875 291.816406 " fill-opacity="1" fill-rule="nonzero"/><path fill="#c70d0d" d="M 674.976562 291.816406 L 674.976562 267.578125 L 688.832031 267.578125 L 688.832031 271.03125 L 678.433594 271.03125 L 678.433594 277.96875 L 688.832031 277.96875 L 688.832031 281.421875 L 685.375 281.421875 L 685.375 284.890625 L 681.902344 284.890625 L 681.902344 281.421875 L 678.433594 281.421875 L 678.433594 291.816406 Z M 685.375 288.347656 L 685.375 284.890625 L 688.832031 284.890625 L 688.832031 288.347656 Z M 688.832031 291.816406 L 688.832031 288.347656 L 692.300781 288.347656 L 692.300781 291.816406 Z M 688.832031 277.96875 L 688.832031 271.03125 L 692.300781 271.03125 L 692.300781 277.96875 Z M 688.832031 277.96875 " fill-opacity="1" fill-rule="nonzero"/><path stroke-linecap="butt" transform="matrix(3.247784, 0, 0, 3.246287, 348.126246, 235.425126)" fill="none" stroke-linejoin="miter" d="M 20.890059 5.993828 C 21.379576 5.993828 21.624935 6.228471 21.624935 6.69896 C 21.624935 7.015427 21.5215 7.351147 21.314628 7.70612 C 21.108959 8.05628 20.86841 8.37034 20.595387 8.648302 C 21.104148 9.253561 21.339885 9.989979 21.300195 10.85876 C 21.300195 11.583145 21.099337 12.374915 20.696418 13.23407 C 20.292296 14.088411 19.698141 14.928313 18.911547 15.752572 C 18.263269 16.476957 17.517568 17.189309 16.673243 17.890832 C 15.827714 18.586338 14.934076 19.219272 13.98872 19.790839 C 14.089751 20.361202 14.305042 20.778746 14.635796 21.042268 C 14.971361 21.30579 15.375483 21.439356 15.844553 21.439356 C 16.27754 21.439356 16.751421 21.345499 17.271006 21.157785 C 17.792996 20.97007 18.292135 20.711361 18.767218 20.380454 C 18.844194 20.341949 18.911547 20.303443 18.968076 20.264938 C 19.031822 20.221619 19.072715 20.228839 19.090756 20.286597 C 19.148488 20.329916 19.08835 20.438213 18.911547 20.610284 C 18.497804 21.027829 17.978219 21.428527 17.349184 21.813582 C 16.721352 22.192621 16.003315 22.381538 15.197477 22.381538 C 14.491467 22.381538 13.933394 22.21067 13.51965 21.870137 C 13.108312 21.52479 12.802816 21.07596 12.606768 20.52485 C 11.603681 21.038658 10.58616 21.453796 9.55541 21.770263 C 8.523456 22.080714 7.544423 22.237143 6.618311 22.237143 C 6.167283 22.237143 5.713848 22.178181 5.258009 22.057851 C 4.80698 21.942335 4.440144 21.734164 4.156296 21.432137 C 3.873652 21.124092 3.732931 20.694515 3.732931 20.143405 C 3.732931 19.337195 4.032414 18.562272 4.63138 17.818634 C 5.231548 17.070183 5.992885 16.371067 6.912983 15.723692 C 6.83721 14.798357 7.028446 13.869411 7.489097 12.938058 C 7.949748 12.003096 8.634108 11.122282 9.540977 10.29682 C 10.619837 9.313726 11.845432 8.558055 13.217762 8.029807 C 14.596105 7.49795 15.923934 7.230818 17.206058 7.230818 C 17.358806 7.230818 17.552448 7.240444 17.788185 7.259697 C 18.028734 7.278949 18.205537 7.298202 18.321 7.317455 C 18.637322 7.082812 19.045052 6.80485 19.545393 6.482366 C 20.048139 6.156273 20.496763 5.993828 20.890059 5.993828 Z M 21.213597 6.726636 C 21.213597 6.631575 21.18834 6.540125 21.135419 6.453487 C 21.087309 6.362037 20.983873 6.317515 20.826314 6.317515 C 20.60982 6.317515 20.310337 6.430625 19.92546 6.655641 C 19.546596 6.881861 19.208625 7.1514 18.911547 7.46907 C 19.165326 7.544878 19.415497 7.664005 19.659653 7.821637 C 19.909824 7.980472 20.132331 8.157357 20.328379 8.353494 C 20.544872 8.133291 20.746933 7.872175 20.933358 7.570147 C 21.120986 7.266916 21.213597 6.986548 21.213597 6.726636 Z M 17.968597 7.670021 C 17.848322 7.631516 17.594544 7.613466 17.206058 7.613466 C 16.063452 7.613466 14.833046 7.874582 13.512434 8.396813 C 12.199039 8.915434 11.02035 9.704798 9.978775 10.764903 C 9.293212 11.456799 8.73995 12.195624 8.316584 12.981377 C 7.894421 13.763521 7.670711 14.528818 7.647859 15.278472 C 8.612459 14.6684 9.679292 14.099241 10.850764 13.572196 C 12.021033 13.039135 13.212951 12.538564 14.427721 12.068074 C 15.036309 11.027222 15.650911 10.147611 16.270324 9.434056 C 16.893345 8.71328 17.459836 8.126071 17.968597 7.670021 Z M 20.033706 8.648302 C 19.855701 8.428099 19.633193 8.246401 19.364981 8.102005 C 19.101581 7.952796 18.85141 7.850516 18.615672 7.792758 C 18.304162 8.123664 17.867566 8.615813 17.307088 9.268 C 16.744204 9.916578 16.22943 10.690298 15.757955 11.592772 C 16.603483 11.199293 17.387672 10.748057 18.111723 10.240265 C 18.841788 9.726457 19.481647 9.195803 20.033706 8.648302 Z M 20.234565 9.000868 C 19.746251 9.509863 19.097972 10.045331 18.292135 10.606067 C 17.486297 11.168007 16.56259 11.693849 15.521015 12.182387 C 15.305724 12.67213 15.08923 13.243696 14.873939 13.895883 C 14.657445 14.543257 14.461398 15.220714 14.283392 15.925846 C 14.12463 16.573221 14.017586 17.177276 13.959854 17.739216 C 13.902123 18.299953 13.882879 18.807744 13.902123 19.257778 C 14.765692 18.724717 15.595585 18.120661 16.391801 17.444408 C 17.188017 16.766951 17.891621 16.046176 18.501412 15.278472 C 19.167732 14.47106 19.698141 13.687713 20.091438 12.923619 C 20.484735 12.155915 20.681985 11.388211 20.681985 10.620507 C 20.681985 9.973133 20.532845 9.434056 20.234565 9.000868 Z M 14.196795 12.65769 C 13.212951 13.028306 12.131685 13.521658 10.950591 14.140153 C 9.770701 14.758648 8.729125 15.472203 7.827068 16.278413 C 8.18308 17.046117 8.871049 17.429969 9.89338 17.429969 C 10.147159 17.429969 10.400938 17.401089 10.655919 17.343331 C 10.794235 17.285573 10.873616 17.285573 10.89286 17.343331 C 10.931348 17.401089 10.851966 17.480507 10.655919 17.581584 C 10.363653 17.695897 10.02929 17.753656 9.655237 17.753656 C 9.204209 17.753656 8.772424 17.664612 8.359883 17.487727 C 7.947342 17.309639 7.611777 17.055743 7.351984 16.723633 C 6.82398 17.232628 6.378965 17.782535 6.014534 18.372151 C 5.6489 18.96297 5.466083 19.51408 5.466083 20.027888 C 5.466083 20.594641 5.62244 21.002559 5.935153 21.251642 C 6.251475 21.497115 6.676043 21.618648 7.208858 21.618648 C 7.956964 21.618648 8.786857 21.476659 9.698536 21.193884 C 10.615026 20.905092 11.553166 20.51763 12.512955 20.027888 C 12.416735 19.533333 12.39268 18.977409 12.44079 18.357711 C 12.4889 17.739216 12.610377 17.087029 12.808829 16.399946 C 12.985633 15.771824 13.205735 15.100384 13.469135 14.385625 C 13.73855 13.666053 13.981504 13.089674 14.196795 12.65769 Z M 14.196795 12.65769 " stroke="#202020" stroke-width="0.848" stroke-opacity="1" stroke-miterlimit="4"/><path fill="#ffffff" d="M 415.964844 254.875 C 417.558594 254.875 418.355469 255.644531 418.355469 257.171875 C 418.355469 258.195312 418.019531 259.28125 417.347656 260.429688 C 416.671875 261.578125 415.894531 262.597656 415.003906 263.488281 C 416.660156 265.472656 417.421875 267.863281 417.300781 270.667969 C 417.300781 273.027344 416.644531 275.597656 415.332031 278.375 C 414.023438 281.148438 412.097656 283.875 409.542969 286.554688 C 407.4375 288.914062 405.011719 291.222656 402.261719 293.488281 C 399.519531 295.753906 396.617188 297.8125 393.554688 299.664062 C 393.875 301.511719 394.578125 302.871094 395.664062 303.738281 C 396.75 304.601562 398.058594 305.027344 399.589844 305.027344 C 400.996094 305.027344 402.542969 304.730469 404.230469 304.125 C 405.925781 303.515625 407.539062 302.671875 409.074219 301.582031 C 409.320312 301.453125 409.542969 301.324219 409.730469 301.195312 C 409.921875 301.074219 410.050781 301.101562 410.117188 301.289062 C 410.308594 301.425781 410.117188 301.777344 409.542969 302.34375 C 408.207031 303.6875 406.511719 304.980469 404.464844 306.222656 C 402.425781 307.464844 400.097656 308.085938 397.480469 308.085938 C 395.183594 308.085938 393.363281 307.527344 392.019531 306.410156 C 390.683594 305.292969 389.691406 303.84375 389.054688 302.0625 C 385.800781 303.722656 382.503906 305.058594 379.152344 306.082031 C 375.796875 307.09375 372.621094 307.605469 369.621094 307.605469 C 368.152344 307.605469 366.683594 307.410156 365.214844 307.03125 C 363.746094 306.648438 362.546875 305.964844 361.617188 304.980469 C 360.695312 303.992188 360.234375 302.601562 360.234375 300.808594 C 360.234375 298.195312 361.207031 295.675781 363.152344 293.253906 C 365.105469 290.835938 367.582031 288.566406 370.582031 286.460938 C 370.324219 283.460938 370.945312 280.445312 372.445312 277.414062 C 373.945312 274.386719 376.164062 271.53125 379.105469 268.851562 C 382.609375 265.660156 386.597656 263.203125 391.070312 261.484375 C 395.539062 259.757812 399.847656 258.894531 403.996094 258.894531 C 404.503906 258.894531 405.140625 258.929688 405.910156 259 C 406.671875 259.0625 407.246094 259.125 407.632812 259.1875 C 408.652344 258.421875 409.976562 257.511719 411.605469 256.457031 C 413.226562 255.402344 414.679688 254.875 415.964844 254.875 Z M 417.019531 257.265625 C 417.019531 256.957031 416.9375 256.652344 416.773438 256.363281 C 416.613281 256.078125 416.28125 255.929688 415.765625 255.929688 C 415.066406 255.929688 414.09375 256.300781 412.847656 257.03125 C 411.605469 257.765625 410.503906 258.644531 409.542969 259.667969 C 410.375 259.917969 411.195312 260.300781 411.992188 260.816406 C 412.789062 261.324219 413.507812 261.898438 414.148438 262.539062 C 414.84375 261.835938 415.496094 260.992188 416.105469 260.007812 C 416.714844 259.015625 417.019531 258.101562 417.019531 257.265625 Z M 406.484375 260.335938 C 406.097656 260.210938 405.269531 260.148438 403.996094 260.148438 C 400.292969 260.148438 396.300781 260.992188 392.019531 262.679688 C 387.746094 264.363281 383.914062 266.9375 380.535156 270.386719 C 378.296875 272.621094 376.492188 275.015625 375.117188 277.566406 C 373.75 280.117188 373.035156 282.597656 372.972656 285.019531 C 376.097656 283.042969 379.5625 281.195312 383.359375 279.476562 C 387.15625 277.753906 391.035156 276.125 394.996094 274.59375 C 396.972656 271.210938 398.964844 268.355469 400.972656 266.027344 C 402.988281 263.703125 404.824219 261.804688 406.484375 260.335938 Z M 413.1875 263.488281 C 412.605469 262.792969 411.890625 262.207031 411.03125 261.730469 C 410.167969 261.246094 409.355469 260.910156 408.59375 260.722656 C 407.566406 261.800781 406.144531 263.394531 404.324219 265.5 C 402.503906 267.609375 400.828125 270.128906 399.296875 273.058594 C 402.046875 271.785156 404.601562 270.320312 406.964844 268.664062 C 409.320312 267 411.394531 265.277344 413.1875 263.488281 Z M 413.855469 264.632812 C 412.261719 266.296875 410.152344 268.039062 407.539062 269.859375 C 404.917969 271.671875 401.917969 273.378906 398.535156 274.980469 C 397.832031 276.570312 397.128906 278.421875 396.425781 280.53125 C 395.722656 282.632812 395.085938 284.832031 394.515625 287.128906 C 394.007812 289.234375 393.65625 291.199219 393.460938 293.019531 C 393.273438 294.832031 393.210938 296.472656 393.273438 297.941406 C 396.078125 296.222656 398.773438 294.261719 401.359375 292.058594 C 403.945312 289.855469 406.226562 287.511719 408.207031 285.019531 C 410.375 282.410156 412.101562 279.859375 413.375 277.367188 C 414.65625 274.878906 415.296875 272.390625 415.296875 269.90625 C 415.296875 267.796875 414.816406 266.039062 413.855469 264.632812 Z M 394.222656 276.5 C 391.035156 277.71875 387.523438 279.332031 383.699219 281.339844 C 379.867188 283.347656 376.484375 285.660156 373.546875 288.273438 C 374.695312 290.769531 376.929688 292.011719 380.253906 292.011719 C 381.078125 292.011719 381.90625 291.914062 382.738281 291.71875 C 383.183594 291.53125 383.433594 291.53125 383.5 291.71875 C 383.632812 291.914062 383.375 292.171875 382.738281 292.492188 C 381.78125 292.875 380.699219 293.066406 379.480469 293.066406 C 378.015625 293.066406 376.613281 292.78125 375.269531 292.210938 C 373.925781 291.632812 372.839844 290.804688 372.011719 289.714844 C 370.292969 291.375 368.839844 293.15625 367.652344 295.070312 C 366.472656 296.984375 365.882812 298.773438 365.882812 300.433594 C 365.882812 302.285156 366.394531 303.609375 367.417969 304.40625 C 368.441406 305.203125 369.8125 305.601562 371.53125 305.601562 C 373.960938 305.601562 376.660156 305.140625 379.632812 304.21875 C 382.597656 303.289062 385.648438 302.027344 388.773438 300.433594 C 388.449219 298.835938 388.367188 297.03125 388.527344 295.023438 C 388.691406 293.015625 389.089844 290.898438 389.722656 288.660156 C 390.300781 286.617188 391.019531 284.429688 391.878906 282.101562 C 392.746094 279.777344 393.527344 277.90625 394.222656 276.5 Z M 394.222656 276.5 " fill-opacity="1" fill-rule="nonzero"/><path fill="#c70d0d" d="M 215.082031 288.347656 L 215.082031 271.03125 L 218.539062 271.03125 L 218.539062 288.347656 Z M 218.539062 291.816406 L 218.539062 288.347656 L 228.933594 288.347656 L 228.933594 291.816406 Z M 218.539062 271.03125 L 218.539062 267.578125 L 228.933594 267.578125 L 228.933594 271.03125 Z M 228.933594 288.347656 L 228.933594 284.890625 L 232.402344 284.890625 L 232.402344 288.347656 Z M 228.933594 274.5 L 228.933594 271.03125 L 232.402344 271.03125 L 232.402344 274.5 Z M 228.933594 274.5 " fill-opacity="1" fill-rule="nonzero"/><path fill="#c70d0d" d="M 233.339844 291.816406 L 233.339844 267.578125 L 247.191406 267.578125 L 247.191406 271.03125 L 236.796875 271.03125 L 236.796875 277.96875 L 247.191406 277.96875 L 247.191406 281.421875 L 243.734375 281.421875 L 243.734375 284.890625 L 240.265625 284.890625 L 240.265625 281.421875 L 236.796875 281.421875 L 236.796875 291.816406 Z M 243.734375 288.347656 L 243.734375 284.890625 L 247.191406 284.890625 L 247.191406 288.347656 Z M 247.191406 291.816406 L 247.191406 288.347656 L 250.660156 288.347656 L 250.660156 291.816406 Z M 247.191406 277.96875 L 247.191406 271.03125 L 250.660156 271.03125 L 250.660156 277.96875 Z M 247.191406 277.96875 " fill-opacity="1" fill-rule="nonzero"/><path fill="#c70d0d" d="M 251.597656 291.816406 L 251.597656 267.578125 L 268.917969 267.578125 L 268.917969 271.03125 L 255.054688 271.03125 L 255.054688 277.96875 L 265.449219 277.96875 L 265.449219 281.421875 L 255.054688 281.421875 L 255.054688 288.347656 L 268.882812 288.347656 L 268.882812 291.816406 Z M 251.597656 291.816406 " fill-opacity="1" fill-rule="nonzero"/><path fill="#c70d0d" d="M 269.855469 291.816406 L 269.855469 271.03125 L 273.3125 271.03125 L 273.3125 281.421875 L 283.707031 281.421875 L 283.707031 271.03125 L 287.175781 271.03125 L 287.175781 291.816406 L 283.707031 291.816406 L 283.707031 284.890625 L 273.3125 284.890625 L 273.3125 291.816406 Z M 273.3125 271.03125 L 273.3125 267.578125 L 283.707031 267.578125 L 283.707031 271.03125 Z M 273.3125 271.03125 " fill-opacity="1" fill-rule="nonzero"/><path fill="#c70d0d" d="M 295.039062 291.816406 L 295.039062 271.03125 L 288.109375 271.03125 L 288.109375 267.578125 L 305.433594 267.578125 L 305.433594 271.03125 L 298.507812 271.03125 L 298.507812 291.816406 Z M 295.039062 291.816406 " fill-opacity="1" fill-rule="nonzero"/><path fill="#c70d0d" d="M 306.367188 267.578125 L 309.828125 267.578125 L 309.828125 291.816406 L 306.367188 291.816406 Z M 306.367188 267.578125 " fill-opacity="1" fill-rule="nonzero"/><path fill="#c70d0d" d="M 324.621094 277.96875 L 324.621094 284.890625 L 321.164062 284.890625 L 321.164062 277.96875 Z M 310.769531 277.96875 L 310.769531 267.578125 L 314.226562 267.578125 L 314.226562 277.96875 Z M 314.226562 284.890625 L 314.226562 277.96875 L 317.695312 277.96875 L 317.695312 284.890625 Z M 317.695312 291.816406 L 317.695312 284.890625 L 321.164062 284.890625 L 321.164062 291.816406 Z M 324.621094 277.96875 L 324.621094 267.578125 L 328.089844 267.578125 L 328.089844 277.96875 Z M 324.621094 277.96875 " fill-opacity="1" fill-rule="nonzero"/><path fill="#c70d0d" d="M 329.027344 291.816406 L 329.027344 267.578125 L 346.347656 267.578125 L 346.347656 271.03125 L 332.484375 271.03125 L 332.484375 277.96875 L 342.878906 277.96875 L 342.878906 281.421875 L 332.484375 281.421875 L 332.484375 288.347656 L 346.3125 288.347656 L 346.3125 291.816406 Z M 329.027344 291.816406 " fill-opacity="1" fill-rule="nonzero"/></svg>