<svg xmlns="http://www.w3.org/2000/svg" xmlns:xlink="http://www.w3.org/1999/xlink" width="1366" zoomAndPan="magnify" viewBox="0 0 1024.5 576" height="768" preserveAspectRatio="xMidYMid meet" version="1.0"><defs><g/><clipPath id="4c9e327d02"><path d="M 385 92 L 1024 92 L 1024 444 L 385 444 Z M 385 92 " clip-rule="nonzero"/></clipPath></defs><g fill="#ffffff" fill-opacity="1"><g transform="translate(24.331169, 208.679311)"><g><path d="M 120.90625 -87.375 L 99.125 -87.375 L 86.375 -27.21875 L 70.046875 -87.375 L 50.609375 -87.375 L 34.78125 -27.21875 L 21.90625 -87.375 L 0 -87.375 L 22.15625 0 L 44.671875 0 L 60.515625 -55.9375 L 76.234375 0 L 98.75 0 Z M 120.90625 -87.375 "/></g></g></g><g fill="#ffffff" fill-opacity="1"><g transform="translate(145.467522, 208.679311)"><g><path d="M 84.28125 0 L 84.28125 -87.375 L 62.375 -87.375 L 62.375 -55.8125 L 30.4375 -55.8125 L 30.4375 -87.375 L 8.421875 -87.375 L 8.421875 0 L 30.4375 0 L 30.4375 -37.25 L 62.375 -37.25 L 62.375 0 Z M 84.28125 0 "/></g></g></g><g fill="#ffffff" fill-opacity="1"><g transform="translate(238.268617, 208.679311)"><g><path d="M 5.203125 -44.0625 C 5.203125 -20.046875 19.796875 2.59375 48.640625 2.59375 C 76.71875 2.59375 92.6875 -19.671875 92.6875 -43.0625 C 92.6875 -63.859375 80.1875 -90.09375 48.390625 -90.09375 C 16.828125 -90.09375 5.203125 -63.984375 5.203125 -44.0625 Z M 26.734375 -44.296875 C 26.734375 -56.0625 31.796875 -71.78125 48.390625 -71.78125 C 63.859375 -71.78125 70.78125 -59.15625 70.78125 -43.3125 C 70.78125 -31.0625 64.96875 -15.96875 48.75 -15.96875 C 33.046875 -15.96875 26.734375 -30.3125 26.734375 -44.296875 Z M 26.734375 -44.296875 "/></g></g></g><g fill="#ffffff" fill-opacity="1"><g transform="translate(336.266591, 208.679311)"><g/></g></g><g fill="#ffffff" fill-opacity="1"><g transform="translate(372.397169, 208.679311)"><g><path d="M 30.078125 0 L 30.078125 -87.375 L 8.296875 -87.375 L 8.296875 0 Z M 30.078125 0 "/></g></g></g><g fill="#ffffff" fill-opacity="1"><g transform="translate(411.126146, 208.679311)"><g><path d="M 79.6875 -72.890625 C 71.15625 -81.0625 59.640625 -89.46875 41.203125 -89.46875 C 18.6875 -89.46875 5.9375 -77.46875 5.9375 -60.265625 C 5.9375 -44.921875 18.4375 -37.75 33.78125 -35.640625 L 43.8125 -34.28125 C 51.609375 -33.28125 59.03125 -31.5625 59.03125 -25.375 C 59.03125 -18.0625 49.375 -15.21875 42.9375 -15.21875 C 33.53125 -15.21875 23.515625 -19.1875 17.703125 -26.234375 L 1.109375 -15.71875 C 10.03125 -5.328125 20.546875 1.984375 40.96875 1.984375 C 65.953125 1.984375 80.6875 -10.03125 80.6875 -28.46875 C 80.6875 -43.4375 71.28125 -50.359375 48.515625 -53.578125 L 38.859375 -54.9375 C 31.4375 -56.0625 27.71875 -58.28125 27.71875 -62.984375 C 27.71875 -67.078125 31.796875 -72.265625 40.71875 -72.265625 C 50.125 -72.265625 57.296875 -67.9375 63.609375 -61.375 Z M 79.6875 -72.890625 "/></g></g></g><g fill="#ffffff" fill-opacity="1"><g transform="translate(496.273327, 208.679311)"><g/></g></g><g clip-path="url(#4c9e327d02)"><path stroke-linecap="butt" transform="matrix(4.080608, 0, 0, 4.080608, 436.058423, 121.510934)" fill="none" stroke-linejoin="miter" d="M 88.553416 14.519132 C 88.501723 14.635919 88.378235 14.655064 88.183909 14.577525 C 88.002027 14.486585 87.801 14.414789 87.580828 14.363096 C 87.217064 14.208018 86.795865 14.129522 86.315314 14.129522 C 85.096708 14.129522 83.604321 14.648363 81.840069 15.686046 C 80.089219 16.724686 78.214882 18.080182 76.217056 19.753493 C 74.232631 21.426804 72.267353 23.236048 70.321219 25.182181 C 68.388488 27.114912 66.584988 28.970105 64.911677 30.746801 C 63.238366 32.524455 61.870425 34.022585 60.805939 35.242149 C 54.164388 42.895536 48.106773 48.966553 42.632136 53.454243 C 37.158457 57.94289 32.02748 61.153579 27.241122 63.08631 C 22.467208 65.032444 17.720098 66.005032 12.997877 66.005032 C 11.025897 66.005032 9.080721 65.687217 7.160434 65.051589 C 5.253549 64.415961 3.664478 63.273935 2.393221 61.626471 C 1.121964 59.979006 0.486336 57.644221 0.486336 54.622114 C 0.486336 50.523077 1.796841 46.429783 4.416893 42.344148 C 7.050348 38.257555 10.708083 34.618965 15.391056 31.428379 C 16.973426 30.363893 18.589301 29.41045 20.236765 28.568051 C 21.88423 27.711293 23.479044 26.965578 25.023124 26.32995 C 24.71201 26.005435 24.420042 25.499995 24.14722 24.812674 C 23.887799 24.124396 23.758568 23.352835 23.758568 22.497034 C 23.758568 19.30549 24.951328 16.451863 27.338764 13.935196 C 29.725242 11.406084 32.987624 9.414959 37.125909 7.961821 C 41.276639 6.496238 45.985459 5.762968 51.252368 5.762968 C 55.818553 5.762968 60.041079 6.080782 63.919944 6.71641 C 67.797851 7.352039 71.171277 8.058505 74.037348 8.837724 C 76.904377 9.602584 79.084084 10.224811 80.575513 10.705361 C 81.262835 10.913089 82.09949 11.191655 83.08548 11.542017 C 84.07147 11.878976 85.024912 12.248483 85.945808 12.651495 C 86.880105 13.053549 87.586571 13.409654 88.067122 13.720767 C 88.495022 13.941897 88.656801 14.208018 88.553416 14.519132 Z M 85.129255 13.332115 C 81.613196 12.268586 78.182334 11.380238 74.835713 10.666113 C 71.489091 9.939544 67.940485 9.382412 64.191809 8.992802 C 60.455577 8.590748 56.168915 8.389721 51.329907 8.389721 C 46.232435 8.389721 41.67295 9.03205 37.651452 10.315752 C 33.643355 11.587009 30.496803 13.287123 28.21371 15.414181 C 25.930617 17.528794 24.789549 19.915272 24.789549 22.574573 C 24.789549 24.118652 25.13321 25.285566 25.820531 26.07723 C 28.428139 25.077838 30.925661 24.390517 33.312139 24.01431 C 35.698617 23.638102 37.826632 23.450476 39.694269 23.450476 C 41.497769 23.450476 43.157678 23.651504 44.675911 24.053558 C 46.193187 24.455612 47.425195 25.097941 48.372894 25.979588 C 49.332081 26.848791 49.812631 27.99656 49.812631 29.423852 C 49.812631 30.591723 49.546509 31.590158 49.014266 32.420112 C 48.482981 33.237622 48.087627 33.542034 47.828207 33.335264 C 47.71142 33.230921 47.854053 32.861414 48.256107 32.225786 C 48.658161 31.590158 48.859188 30.714254 48.859188 29.599032 C 48.859188 28.262681 48.417886 27.250845 47.536239 26.563524 C 46.667036 25.876203 45.538413 25.389909 44.150369 25.103685 C 42.77477 24.805973 41.290041 24.656639 39.694269 24.656639 C 37.77494 24.656639 35.562685 25.013701 33.059419 25.726869 C 30.568598 26.440036 28.006939 27.426026 25.373485 28.684838 C 22.752475 29.929291 20.24921 31.375729 17.862731 33.023193 C 14.878916 35.034421 12.161221 37.213171 9.709649 39.561359 C 7.27052 41.896144 5.331088 44.354418 3.891351 46.93618 C 2.465017 49.50454 1.750892 52.196388 1.750892 55.010766 C 1.750892 57.410646 2.269733 59.311788 3.307416 60.712276 C 4.346055 62.126167 5.701552 63.138003 7.374863 63.747785 C 9.048174 64.357567 10.786579 64.661979 12.589122 64.661979 C 16.519679 64.661979 20.793897 63.397424 25.411776 60.868312 C 30.043056 58.351645 34.933757 54.926526 40.083879 50.593915 C 45.246445 46.261303 50.506653 41.384004 55.863545 35.962017 C 62.193983 29.592332 67.75956 24.390517 72.55932 20.356574 C 77.371525 16.30923 81.561503 13.967743 85.129255 13.332115 Z M 79.12429 29.267816 C 79.77332 29.267816 80.096878 29.533938 80.096878 30.066181 C 80.096878 30.442389 79.77332 31.019624 79.12429 31.797886 C 78.488661 32.562746 77.45768 33.477897 76.030388 34.541426 C 75.070244 35.228747 74.07181 35.903624 73.034127 36.565098 C 71.996445 37.226573 71.185636 37.8488 70.6017 38.432735 C 70.173799 38.964979 69.842583 39.619752 69.609966 40.398014 C 69.376392 41.163832 69.201211 41.863597 69.084424 42.499226 C 68.876696 43.71879 68.59813 45.178629 68.247769 46.877786 C 67.909852 48.576943 67.235933 50.32205 66.224097 52.112148 C 65.21226 53.888844 63.513103 55.575557 61.125668 57.171329 C 62.55296 56.48305 63.96685 55.699045 65.367338 54.81644 C 66.781229 53.934793 68.130982 53.045488 69.414683 52.150439 C 70.478212 51.398023 71.41921 50.691557 72.23672 50.030082 C 73.066674 49.368607 73.955023 48.609491 74.901764 47.75369 C 75.330622 47.338234 75.65418 47.286541 75.87531 47.597655 C 76.13473 47.817827 76.076337 48.109795 75.700129 48.473558 C 74.80508 49.329359 73.838235 50.159314 72.800553 50.963422 C 71.76287 51.755085 70.764436 52.494099 69.804293 53.182377 C 68.325308 54.245906 66.865469 55.192648 65.425732 56.022603 C 63.985995 56.840113 62.733884 57.463296 61.670355 57.891197 C 60.19137 58.526825 58.758335 58.973871 57.370291 59.233292 C 55.995649 59.506114 54.750238 59.642047 53.634059 59.642047 C 52.415453 59.642047 51.436164 59.415173 50.696193 58.961427 C 49.943777 58.506723 49.567569 57.748563 49.567569 56.684077 C 49.567569 55.41282 50.443473 53.818006 52.194323 51.897719 C 52.674873 51.366433 53.232005 50.840891 53.867634 50.32205 C 54.503262 49.789807 55.087198 49.310214 55.619441 48.882313 C 56.423549 48.246685 57.169264 47.740288 57.856585 47.36408 C 58.543906 46.987872 59.153688 46.800247 59.685931 46.800247 C 61.281703 45.424648 63.006706 43.913116 64.861899 42.265651 C 66.729536 40.619144 68.163529 39.210997 69.161963 38.044083 C 70.122107 36.876212 71.023857 35.825127 71.866256 34.891788 C 72.723014 33.95749 73.578815 33.120835 74.434616 32.381821 C 75.499102 31.421678 76.413296 30.662561 77.179114 30.104472 C 77.943974 29.54734 78.593004 29.267816 79.12429 29.267816 Z M 68.694815 39.794933 C 67.631286 40.962805 66.340884 42.22736 64.822651 43.589558 C 63.305375 44.938354 61.754595 46.274705 60.172225 47.597655 C 60.055438 47.973862 59.730923 48.441011 59.199637 48.998143 C 58.667394 49.556232 57.902534 50.152613 56.903142 50.788241 C 56.371856 51.164449 55.710382 51.593307 54.918718 52.0729 C 54.11461 52.552493 53.420588 53.000496 52.836652 53.415952 C 52.201024 53.895545 51.656336 54.414386 51.202589 54.972476 C 50.747885 55.529608 50.521012 56.101099 50.521012 56.684077 C 50.521012 57.372356 50.761287 57.812701 51.24088 58.007984 C 51.721431 58.188908 52.201024 58.279849 52.680617 58.279849 C 53.900181 58.279849 55.308328 57.806957 56.903142 56.859258 C 58.498914 55.900072 60.062139 54.544575 61.592816 52.792768 C 62.55296 51.780932 63.513103 50.49053 64.472289 48.920604 C 65.432433 47.350678 66.294935 45.742462 67.060752 44.094997 C 67.825612 42.447533 68.3703 41.014497 68.694815 39.794933 Z M 103.999951 36.214737 C 101.716858 38.277657 99.511305 40.346322 97.384247 42.421687 C 95.256232 44.497052 93.369449 46.397236 91.721985 48.123197 C 90.07452 49.8482 88.770716 51.268791 87.810573 52.384013 C 86.812138 53.551884 86.001329 54.576165 85.378146 55.45877 C 84.768363 56.327972 84.463951 57.028695 84.463951 57.559981 C 84.463951 58.040531 84.730073 58.279849 85.261358 58.279849 C 85.793601 58.279849 86.494324 58.027129 87.363527 57.520733 C 88.245174 57.015293 89.16607 56.431358 90.126213 55.769883 C 91.086357 55.108408 91.90961 54.512028 92.596931 53.979785 C 93.868188 52.967949 95.178693 51.865172 96.527489 50.672411 C 97.889686 49.478693 99.050857 48.453455 100.011 47.597655 C 100.166078 47.494269 100.34796 47.389927 100.555688 47.286541 C 100.77586 47.182199 100.964443 47.234849 101.119521 47.441619 C 101.340651 47.649347 101.210462 47.967161 100.730869 48.395062 C 99.562997 49.511241 98.285997 50.652308 96.897953 51.82018 C 95.522353 52.987094 94.328636 53.973084 93.3168 54.777192 C 92.526093 55.41282 91.611899 56.106842 90.573259 56.859258 C 89.535576 57.599229 88.497894 58.234857 87.460211 58.766143 C 86.422529 59.298386 85.508334 59.564508 84.716671 59.564508 C 82.849034 59.564508 81.914737 58.656057 81.914737 56.840113 C 81.914737 56.256177 82.089917 55.543009 82.440279 54.699653 C 82.79064 53.843852 83.38702 52.909555 84.230377 51.897719 C 81.947284 53.973084 79.664191 55.769883 77.381098 57.288116 C 75.098005 58.805391 73.314608 59.564508 72.029949 59.564508 C 70.227407 59.564508 69.325657 58.688604 69.325657 56.937754 C 69.273964 55.498018 69.844498 53.727065 71.038216 51.625854 C 72.230976 49.523685 73.735807 47.571808 75.551752 45.768308 C 77.355252 43.913116 79.411471 42.201514 81.72041 40.631589 C 84.02935 39.061663 86.299041 37.803808 88.530441 36.857066 C 90.761841 35.896923 92.623735 35.41733 94.115164 35.41733 C 94.854178 35.41733 95.46396 35.534117 95.94451 35.766734 C 96.424103 36.000308 96.664379 36.467457 96.664379 37.16818 C 96.664379 37.583636 96.501642 38.128323 96.177127 38.802242 C 95.866014 39.463717 95.256232 40.242936 94.348738 41.137985 C 94.297046 41.202122 94.283644 41.248071 94.30949 41.273918 C 94.335337 41.299764 94.374585 41.286362 94.426277 41.23467 C 95.658286 40.002661 96.884551 38.964979 98.104115 38.121622 C 99.323679 37.265821 100.251276 36.733578 100.886904 36.52585 C 101.314804 36.370772 101.723559 36.279831 102.112212 36.253985 C 102.514266 36.227182 102.929722 36.214737 103.357622 36.214737 Z M 95.554901 37.479293 C 95.554901 36.895357 95.237086 36.603389 94.601458 36.603389 C 93.486237 36.603389 91.585095 37.551088 88.899948 39.444572 C 86.214801 41.32561 82.984966 44.069151 79.210444 47.675194 C 77.238464 49.647173 75.520162 51.56746 74.053622 53.435097 C 72.60144 55.29029 71.874871 56.664932 71.874871 57.559981 C 71.874871 57.781111 71.913162 57.968736 71.991658 58.124771 C 72.069197 58.279849 72.296071 58.358345 72.672279 58.358345 C 73.3596 58.358345 74.475778 57.884496 76.0189 56.937754 C 77.56298 55.977611 79.353078 54.64796 81.389194 52.948803 C 83.438713 51.249646 85.501634 49.33606 87.576999 47.208045 C 88.537142 46.248859 89.639919 45.146082 90.885329 43.900671 C 92.13074 42.655261 93.220115 41.435697 94.154412 40.242936 C 95.087752 39.035817 95.554901 38.114921 95.554901 37.479293 Z M 134.509157 30.066181 C 133.18525 31.661953 131.791463 32.952355 130.324923 33.938345 C 128.872741 34.924335 127.335363 35.799281 125.713745 36.565098 C 124.092127 37.329959 122.406371 38.19246 120.654564 39.152604 C 118.903714 40.112747 117.015974 41.390705 114.992302 42.986477 C 113.552565 44.101698 112.15112 45.35381 110.789879 46.741854 C 109.440126 48.116496 108.240665 49.569634 107.189581 51.100312 C 107.124486 51.164449 107.027802 51.262091 106.897613 51.392279 C 106.768381 51.521511 106.651594 51.560759 106.547251 51.509067 C 106.171044 51.456417 106.060957 51.217099 106.216993 50.788241 C 106.917715 49.245119 108.104732 47.506714 109.778043 45.573982 C 111.451354 43.627849 113.61766 41.624279 116.276961 39.561359 C 117.754988 38.381043 119.383307 37.219872 121.160961 36.078804 C 122.951059 34.936779 124.682763 33.769865 126.356074 32.576147 C 128.029385 31.38243 129.42413 30.124575 130.539351 28.801625 C 131.486093 27.737139 132.329449 26.544379 133.068463 25.220472 C 133.820879 23.885078 134.197086 22.710505 134.197086 21.698669 C 134.197086 21.011348 133.970213 20.453259 133.516466 20.025358 C 133.06272 19.597458 132.33615 19.383029 131.336759 19.383029 C 130.169845 19.383029 129.041221 19.688399 127.951846 20.298181 C 126.861514 20.907963 126.024858 21.511044 125.440922 22.107424 C 124.961329 22.471188 124.442488 23.106816 123.884399 24.01431 C 123.327267 24.909359 122.885964 25.59668 122.561449 26.07723 C 121.874128 27.140759 121.303594 27.874029 120.84889 28.276083 C 120.395143 28.678137 120.038081 28.879164 119.77866 28.879164 C 119.195682 28.879164 118.942005 28.56135 119.020501 27.925722 C 119.09804 27.276691 119.324914 26.661166 119.701121 26.07723 C 120.233365 25.233874 120.959934 24.364671 121.880829 23.469622 C 122.814169 22.561171 123.735064 21.757063 124.643515 21.057297 C 125.590257 20.369019 126.660487 19.720946 127.854204 19.111164 C 129.060367 18.501382 130.351726 18.19697 131.726368 18.19697 C 133.529868 18.19697 134.897809 18.676563 135.832106 19.636706 C 136.765446 20.583448 137.232595 21.828858 137.232595 23.37198 C 137.232595 24.383816 137.005722 25.486593 136.551975 26.680311 C 136.098228 27.874029 135.416651 29.002652 134.509157 30.066181 Z M 103.045552 59.486011 C 102.461616 59.486011 101.955219 59.27254 101.527319 58.844639 C 101.099418 58.415782 100.884989 57.910342 100.884989 57.326407 C 100.884989 56.742471 101.099418 56.237031 101.527319 55.809131 C 101.955219 55.381231 102.461616 55.166802 103.045552 55.166802 C 103.62853 55.166802 104.115781 55.381231 104.504434 55.809131 C 104.906488 56.237031 105.107515 56.742471 105.107515 57.326407 C 105.107515 57.910342 104.906488 58.415782 104.504434 58.844639 C 104.115781 59.27254 103.62853 59.486011 103.045552 59.486011 Z M 103.045552 59.486011 " stroke="#202020" stroke-width="2.291473" stroke-opacity="1" stroke-miterlimit="4"/></g><g fill="#c70d0d" fill-opacity="1"><g transform="translate(436.058423, 362.266778)"><g><path d="M 361.3125 -181.46875 C 361.101562 -181.039062 360.617188 -180.988281 359.859375 -181.3125 C 359.097656 -181.632812 358.285156 -181.90625 357.421875 -182.125 C 355.898438 -182.769531 354.164062 -183.09375 352.21875 -183.09375 C 347.226562 -183.09375 341.15625 -180.976562 334 -176.75 C 326.84375 -172.53125 319.195312 -167.003906 311.0625 -160.171875 C 302.9375 -153.335938 294.914062 -145.960938 287 -138.046875 C 279.09375 -130.140625 271.722656 -122.550781 264.890625 -115.28125 C 258.054688 -108.019531 252.472656 -101.898438 248.140625 -96.921875 C 221.035156 -65.691406 196.316406 -40.914062 173.984375 -22.59375 C 151.660156 -4.28125 130.738281 8.832031 111.21875 16.75 C 91.707031 24.664062 72.304688 28.625 53.015625 28.625 C 44.992188 28.625 37.078125 27.320312 29.265625 24.71875 C 21.460938 22.113281 14.957031 17.453125 9.75 10.734375 C 4.550781 4.015625 1.953125 -5.523438 1.953125 -17.890625 C 1.953125 -34.578125 7.316406 -51.269531 18.046875 -67.96875 C 28.773438 -84.664062 43.679688 -99.519531 62.765625 -112.53125 C 69.273438 -116.863281 75.890625 -120.765625 82.609375 -124.234375 C 89.328125 -127.703125 95.832031 -130.738281 102.125 -133.34375 C 100.820312 -134.644531 99.628906 -136.703125 98.546875 -139.515625 C 97.460938 -142.335938 96.921875 -145.484375 96.921875 -148.953125 C 96.921875 -161.960938 101.796875 -173.613281 111.546875 -183.90625 C 121.304688 -194.207031 134.640625 -202.335938 151.546875 -208.296875 C 168.460938 -214.265625 187.648438 -217.25 209.109375 -217.25 C 227.753906 -217.25 244.988281 -215.945312 260.8125 -213.34375 C 276.644531 -210.738281 290.414062 -207.863281 302.125 -204.71875 C 313.832031 -201.582031 322.722656 -199.035156 328.796875 -197.078125 C 331.617188 -196.210938 335.035156 -195.070312 339.046875 -193.65625 C 343.054688 -192.25 346.957031 -190.734375 350.75 -189.109375 C 354.539062 -187.484375 357.410156 -186.019531 359.359375 -184.71875 C 361.097656 -183.851562 361.75 -182.769531 361.3125 -181.46875 Z M 347.328125 -186.34375 C 333.023438 -190.6875 319.039062 -194.320312 305.375 -197.25 C 291.71875 -200.175781 277.242188 -202.453125 261.953125 -204.078125 C 246.671875 -205.703125 229.164062 -206.515625 209.4375 -206.515625 C 188.625 -206.515625 170.03125 -203.910156 153.65625 -198.703125 C 137.289062 -193.503906 124.445312 -186.566406 115.125 -177.890625 C 105.800781 -169.222656 101.140625 -159.46875 101.140625 -148.625 C 101.140625 -142.332031 102.550781 -137.5625 105.375 -134.3125 C 116 -138.4375 126.1875 -141.253906 135.9375 -142.765625 C 145.695312 -144.285156 154.367188 -145.046875 161.953125 -145.046875 C 169.328125 -145.046875 176.101562 -144.234375 182.28125 -142.609375 C 188.457031 -140.984375 193.5 -138.378906 197.40625 -134.796875 C 201.3125 -131.222656 203.265625 -126.507812 203.265625 -120.65625 C 203.265625 -115.882812 202.175781 -111.816406 200 -108.453125 C 197.832031 -105.097656 196.207031 -103.851562 195.125 -104.71875 C 194.695312 -105.15625 195.296875 -106.671875 196.921875 -109.265625 C 198.546875 -111.867188 199.359375 -115.445312 199.359375 -120 C 199.359375 -125.425781 197.566406 -129.546875 193.984375 -132.359375 C 190.410156 -135.179688 185.804688 -137.1875 180.171875 -138.375 C 174.535156 -139.570312 168.460938 -140.171875 161.953125 -140.171875 C 154.148438 -140.171875 145.15625 -138.707031 134.96875 -135.78125 C 124.78125 -132.851562 114.316406 -128.84375 103.578125 -123.75 C 92.847656 -118.65625 82.601562 -112.742188 72.84375 -106.015625 C 60.707031 -97.773438 49.648438 -88.882812 39.671875 -79.34375 C 29.703125 -69.8125 21.789062 -59.785156 15.9375 -49.265625 C 10.082031 -38.753906 7.15625 -27.753906 7.15625 -16.265625 C 7.15625 -6.503906 9.269531 1.242188 13.5 6.984375 C 17.726562 12.734375 23.253906 16.851562 30.078125 19.34375 C 36.910156 21.84375 44.015625 23.09375 51.390625 23.09375 C 67.429688 23.09375 84.878906 17.941406 103.734375 7.640625 C 122.597656 -2.660156 142.546875 -16.644531 163.578125 -34.3125 C 184.609375 -51.976562 206.078125 -71.867188 227.984375 -93.984375 C 253.773438 -120.003906 276.484375 -141.253906 296.109375 -157.734375 C 315.734375 -174.210938 332.804688 -183.75 347.328125 -186.34375 Z M 347.328125 -186.34375 "/></g></g></g><g fill="#c70d0d" fill-opacity="1"><g transform="translate(665.956288, 362.266778)"><g><path d="M 93.015625 -121.3125 C 95.617188 -121.3125 96.921875 -120.222656 96.921875 -118.046875 C 96.921875 -116.535156 95.617188 -114.207031 93.015625 -111.0625 C 90.410156 -107.914062 86.179688 -104.175781 80.328125 -99.84375 C 76.421875 -97.019531 72.351562 -94.253906 68.125 -91.546875 C 63.90625 -88.835938 60.601562 -86.289062 58.21875 -83.90625 C 56.476562 -81.738281 55.117188 -79.082031 54.140625 -75.9375 C 53.171875 -72.789062 52.46875 -69.914062 52.03125 -67.3125 C 51.164062 -62.332031 50.023438 -56.375 48.609375 -49.4375 C 47.203125 -42.5 44.4375 -35.394531 40.3125 -28.125 C 36.195312 -20.863281 29.265625 -13.984375 19.515625 -7.484375 C 25.367188 -10.296875 31.164062 -13.488281 36.90625 -17.0625 C 42.65625 -20.644531 48.128906 -24.28125 53.328125 -27.96875 C 57.671875 -31 61.519531 -33.867188 64.875 -36.578125 C 68.238281 -39.296875 71.875 -42.390625 75.78125 -45.859375 C 77.507812 -47.585938 78.804688 -47.800781 79.671875 -46.5 C 80.753906 -45.632812 80.539062 -44.441406 79.03125 -42.921875 C 75.34375 -39.453125 71.382812 -36.09375 67.15625 -32.84375 C 62.925781 -29.59375 58.863281 -26.554688 54.96875 -23.734375 C 48.894531 -19.398438 42.929688 -15.550781 37.078125 -12.1875 C 31.222656 -8.832031 26.128906 -6.285156 21.796875 -4.546875 C 15.722656 -1.953125 9.863281 -0.113281 4.21875 0.96875 C -1.414062 2.0625 -6.507812 2.609375 -11.0625 2.609375 C -16.039062 2.609375 -20.046875 1.6875 -23.078125 -0.15625 C -26.117188 -2 -27.640625 -5.09375 -27.640625 -9.4375 C -27.640625 -14.632812 -24.0625 -21.132812 -16.90625 -28.9375 C -14.957031 -31.113281 -12.679688 -33.285156 -10.078125 -35.453125 C -7.472656 -37.617188 -5.085938 -39.566406 -2.921875 -41.296875 C 0.328125 -43.898438 3.359375 -45.960938 6.171875 -47.484375 C 8.992188 -49.003906 11.488281 -49.765625 13.65625 -49.765625 C 20.164062 -55.398438 27.210938 -61.578125 34.796875 -68.296875 C 42.390625 -75.015625 48.242188 -80.757812 52.359375 -85.53125 C 56.265625 -90.300781 59.953125 -94.582031 63.421875 -98.375 C 66.890625 -102.164062 70.359375 -105.582031 73.828125 -108.625 C 78.160156 -112.53125 81.898438 -115.617188 85.046875 -117.890625 C 88.191406 -120.171875 90.847656 -121.3125 93.015625 -121.3125 Z M 50.40625 -78.375 C 46.070312 -73.601562 40.8125 -68.453125 34.625 -62.921875 C 28.445312 -57.398438 22.109375 -51.925781 15.609375 -46.5 C 15.171875 -44.988281 13.867188 -43.09375 11.703125 -40.8125 C 9.535156 -38.539062 6.394531 -36.101562 2.28125 -33.5 C 0.113281 -31.976562 -2.59375 -30.238281 -5.84375 -28.28125 C -9.101562 -26.332031 -11.925781 -24.492188 -14.3125 -22.765625 C -16.914062 -20.816406 -19.132812 -18.703125 -20.96875 -16.421875 C -22.8125 -14.148438 -23.734375 -11.820312 -23.734375 -9.4375 C -23.734375 -6.613281 -22.757812 -4.820312 -20.8125 -4.0625 C -18.863281 -3.300781 -16.910156 -2.921875 -14.953125 -2.921875 C -9.972656 -2.921875 -4.234375 -4.875 2.265625 -8.78125 C 8.773438 -12.6875 15.175781 -18.210938 21.46875 -25.359375 C 25.363281 -29.484375 29.265625 -34.742188 33.171875 -41.140625 C 37.078125 -47.535156 40.597656 -54.09375 43.734375 -60.8125 C 46.878906 -67.53125 49.101562 -73.382812 50.40625 -78.375 Z M 50.40625 -78.375 "/></g></g></g><g fill="#c70d0d" fill-opacity="1"><g transform="translate(735.543484, 362.266778)"><g><path d="M 124.890625 -93.015625 C 115.566406 -84.554688 106.566406 -76.097656 97.890625 -67.640625 C 89.210938 -59.191406 81.515625 -51.441406 74.796875 -44.390625 C 68.078125 -37.347656 62.765625 -31.550781 58.859375 -27 C 54.742188 -22.226562 51.4375 -18.050781 48.9375 -14.46875 C 46.445312 -10.894531 45.203125 -8.023438 45.203125 -5.859375 C 45.203125 -3.898438 46.285156 -2.921875 48.453125 -2.921875 C 50.617188 -2.921875 53.488281 -3.953125 57.0625 -6.015625 C 60.644531 -8.078125 64.390625 -10.460938 68.296875 -13.171875 C 72.203125 -15.878906 75.5625 -18.316406 78.375 -20.484375 C 83.582031 -24.609375 88.945312 -29.109375 94.46875 -33.984375 C 100 -38.859375 104.71875 -43.03125 108.625 -46.5 C 109.269531 -46.9375 110.023438 -47.367188 110.890625 -47.796875 C 111.765625 -48.234375 112.523438 -48.019531 113.171875 -47.15625 C 114.046875 -46.289062 113.503906 -44.988281 111.546875 -43.25 C 106.773438 -38.695312 101.570312 -34.035156 95.9375 -29.265625 C 90.300781 -24.492188 85.421875 -20.484375 81.296875 -17.234375 C 78.046875 -14.628906 74.304688 -11.8125 70.078125 -8.78125 C 65.859375 -5.75 61.632812 -3.144531 57.40625 -0.96875 C 53.175781 1.195312 49.4375 2.28125 46.1875 2.28125 C 38.59375 2.28125 34.796875 -1.40625 34.796875 -8.78125 C 34.796875 -11.164062 35.5 -14.09375 36.90625 -17.5625 C 38.320312 -21.03125 40.765625 -24.820312 44.234375 -28.9375 C 34.910156 -20.488281 25.585938 -13.171875 16.265625 -6.984375 C 6.941406 -0.804688 -0.320312 2.28125 -5.53125 2.28125 C -12.90625 2.28125 -16.59375 -1.296875 -16.59375 -8.453125 C -16.800781 -14.304688 -14.46875 -21.515625 -9.59375 -30.078125 C -4.71875 -38.640625 1.40625 -46.609375 8.78125 -53.984375 C 16.15625 -61.578125 24.554688 -68.570312 33.984375 -74.96875 C 43.410156 -81.363281 52.675781 -86.507812 61.78125 -90.40625 C 70.894531 -94.3125 78.488281 -96.265625 84.5625 -96.265625 C 87.59375 -96.265625 90.082031 -95.773438 92.03125 -94.796875 C 93.988281 -93.828125 94.96875 -91.929688 94.96875 -89.109375 C 94.96875 -87.378906 94.316406 -85.15625 93.015625 -82.4375 C 91.710938 -79.726562 89.21875 -76.53125 85.53125 -72.84375 C 85.3125 -72.632812 85.253906 -72.472656 85.359375 -72.359375 C 85.472656 -72.253906 85.640625 -72.3125 85.859375 -72.53125 C 90.847656 -77.507812 95.832031 -81.734375 100.8125 -85.203125 C 105.800781 -88.671875 109.597656 -90.84375 112.203125 -91.71875 C 113.929688 -92.363281 115.609375 -92.738281 117.234375 -92.84375 C 118.867188 -92.957031 120.550781 -93.015625 122.28125 -93.015625 Z M 90.40625 -87.8125 C 90.40625 -90.195312 89.109375 -91.390625 86.515625 -91.390625 C 81.953125 -91.390625 74.195312 -87.539062 63.25 -79.84375 C 52.300781 -72.144531 39.128906 -60.925781 23.734375 -46.1875 C 15.710938 -38.15625 8.722656 -30.34375 2.765625 -22.75 C -3.191406 -15.164062 -6.171875 -9.535156 -6.171875 -5.859375 C -6.171875 -4.984375 -6.007812 -4.222656 -5.6875 -3.578125 C -5.363281 -2.929688 -4.441406 -2.609375 -2.921875 -2.609375 C -0.109375 -2.609375 4.4375 -4.554688 10.71875 -8.453125 C 17.007812 -12.359375 24.328125 -17.78125 32.671875 -24.71875 C 41.023438 -31.65625 49.429688 -39.457031 57.890625 -48.125 C 61.796875 -52.03125 66.296875 -56.53125 71.390625 -61.625 C 76.484375 -66.71875 80.925781 -71.703125 84.71875 -76.578125 C 88.507812 -81.460938 90.40625 -85.207031 90.40625 -87.8125 Z M 90.40625 -87.8125 "/></g></g></g><g fill="#c70d0d" fill-opacity="1"><g transform="translate(837.648086, 362.266778)"><g><path d="M 147.328125 -118.046875 C 141.898438 -111.546875 136.207031 -106.289062 130.25 -102.28125 C 124.289062 -98.269531 118.003906 -94.691406 111.390625 -91.546875 C 104.773438 -88.398438 97.890625 -84.875 90.734375 -80.96875 C 83.578125 -77.070312 75.878906 -71.875 67.640625 -65.375 C 61.785156 -60.820312 56.09375 -55.722656 50.5625 -50.078125 C 45.039062 -44.441406 40.113281 -38.484375 35.78125 -32.203125 C 35.5625 -31.984375 35.179688 -31.601562 34.640625 -31.0625 C 34.097656 -30.519531 33.609375 -30.359375 33.171875 -30.578125 C 31.648438 -30.785156 31.21875 -31.757812 31.875 -33.5 C 34.6875 -39.78125 39.507812 -46.878906 46.34375 -54.796875 C 53.175781 -62.710938 62.007812 -70.898438 72.84375 -79.359375 C 78.914062 -84.128906 85.582031 -88.84375 92.84375 -93.5 C 100.113281 -98.164062 107.160156 -102.9375 113.984375 -107.8125 C 120.816406 -112.6875 126.507812 -117.835938 131.0625 -123.265625 C 134.96875 -127.597656 138.4375 -132.472656 141.46875 -137.890625 C 144.5 -143.304688 146.015625 -148.078125 146.015625 -152.203125 C 146.015625 -155.023438 145.09375 -157.300781 143.25 -159.03125 C 141.414062 -160.769531 138.4375 -161.640625 134.3125 -161.640625 C 129.539062 -161.640625 124.929688 -160.390625 120.484375 -157.890625 C 116.046875 -155.398438 112.632812 -152.960938 110.25 -150.578125 C 108.300781 -149.054688 106.1875 -146.453125 103.90625 -142.765625 C 101.632812 -139.085938 99.847656 -136.269531 98.546875 -134.3125 C 95.722656 -129.976562 93.390625 -127 91.546875 -125.375 C 89.703125 -123.75 88.238281 -122.9375 87.15625 -122.9375 C 84.769531 -122.9375 83.738281 -124.234375 84.0625 -126.828125 C 84.394531 -129.429688 85.316406 -131.925781 86.828125 -134.3125 C 88.992188 -137.78125 91.972656 -141.359375 95.765625 -145.046875 C 99.566406 -148.734375 103.3125 -151.984375 107 -154.796875 C 110.894531 -157.617188 115.28125 -160.273438 120.15625 -162.765625 C 125.039062 -165.265625 130.300781 -166.515625 135.9375 -166.515625 C 143.3125 -166.515625 148.894531 -164.5625 152.6875 -160.65625 C 156.476562 -156.75 158.375 -151.65625 158.375 -145.375 C 158.375 -141.25 157.453125 -136.75 155.609375 -131.875 C 153.773438 -127 151.015625 -122.390625 147.328125 -118.046875 Z M 18.859375 1.953125 C 16.472656 1.953125 14.410156 1.085938 12.671875 -0.640625 C 10.941406 -2.378906 10.078125 -4.441406 10.078125 -6.828125 C 10.078125 -9.210938 10.941406 -11.269531 12.671875 -13 C 14.410156 -14.738281 16.472656 -15.609375 18.859375 -15.609375 C 21.242188 -15.609375 23.25 -14.738281 24.875 -13 C 26.5 -11.269531 27.3125 -9.210938 27.3125 -6.828125 C 27.3125 -4.441406 26.5 -2.378906 24.875 -0.640625 C 23.25 1.085938 21.242188 1.953125 18.859375 1.953125 Z M 18.859375 1.953125 "/></g></g></g></svg>